<?xml version="1.0" encoding="UTF-8"?>
<svg width="36px" height="36px" viewBox="0 0 36 36" version="1.1" xmlns="http://www.w3.org/2000/svg" xmlns:xlink="http://www.w3.org/1999/xlink">
    <!-- Generator: sketchtool 46.2 (44496) - http://www.bohemiancoding.com/sketch -->
    <title>843735EF-F761-45F9-AA94-34260AE0D747</title>
    <desc>Created with sketchtool.</desc>
    <defs></defs>
    <g id="Testi" stroke="none" stroke-width="1" fill="none" fill-rule="evenodd">
        <g id="testi-vinkit-mockup" transform="translate(-106.000000, -444.000000)">
            <g id="vinkit">
                <g id="gridi" transform="translate(74.000000, 415.000000)">
                    <g id="vaikutukset" transform="translate(32.000000, 28.000000)">
                        <g id="vaikutus1-kortti" transform="translate(0.000000, 1.000000)">
                            <g>
                                <circle id="Oval" fill="#FFFFFF" fill-rule="nonzero" cx="18" cy="18" r="18"></circle>
                                <circle id="Oval" fill="#75CFEB" fill-rule="nonzero" cx="18" cy="18" r="18"></circle>
                                <g id="globe" transform="translate(2.000000, 3.000000)" fill-rule="nonzero" fill="#000000">
                                    <path d="M3.56222369,6.8627509 C3.57302158,6.88668962 3.57752216,6.89666732 3.55373662,6.8627509 L3.56222369,6.8627509 Z M9.16543099,1.50987278 L8.94043099,1.58487278 C8.77472369,1.5752509 8.77472369,1.5752509 8.62472369,1.5752509 L8.62472369,1.7627509 L8.75730621,1.63016838 C8.80471149,1.67757366 8.77789331,1.7295339 8.81294951,1.70908444 C8.89589225,1.66070118 9.03520419,1.61027131 9.1861202,1.57194044 L9.16543099,1.50987278 Z M3.24214117,7.37033342 C3.10000698,7.22819923 3.09416801,7.04423108 3.22462426,6.89865975 C3.22525457,6.9420115 3.24473444,7.0502509 3.37472369,7.0502509 L3.37472369,6.8627509 L3.55373662,6.8627509 C3.53673748,6.83851139 3.50529056,6.79185196 3.45136904,6.71184581 C3.23534997,6.78507417 3.18520837,6.8021179 3.1850974,6.8159621 C3.20001917,6.80720879 3.20184372,6.79956475 3.20379481,6.79198785 C3.06963639,6.83795222 2.92865759,6.79913842 2.89483229,6.64033952 C2.77767098,6.47797186 2.86957807,6.33082013 3.04565886,6.22295084 C3.02016139,6.20093323 2.99866088,6.17363802 2.98201859,6.14035345 C2.91582573,6.00796772 2.97045709,5.87685246 3.05701859,5.80389835 C3.10332607,5.7112834 3.11159325,5.69268224 3.11199705,5.69025942 C3.1120434,5.68998132 3.11196979,5.69196879 3.11222369,5.6627509 L3.14371426,5.55874461 C4.53131478,3.47734384 6.4407091,1.74510981 8.6135819,0.62121009 C8.69329427,0.57997956 8.78281275,0.60203762 8.83709213,0.65996935 C8.97816622,0.80194116 9.03722369,0.9024292 9.03722369,1.0877509 C9.03722369,1.04937582 9.12025622,1.07705333 9.09214117,1.10516838 L9.22472369,1.0502509 C9.30308368,1.0502509 9.33077463,1.05302 9.38357624,1.0794208 C9.42662002,1.10094269 9.44122508,1.11408725 9.50730621,1.18016838 C9.63254737,1.30540953 9.63254737,1.50719056 9.42019912,1.56027762 C9.3652201,1.57402237 9.32590725,1.5752509 9.19519912,1.56965262 C9.19317864,1.57015774 9.21241307,1.63770254 9.2529024,1.77228701 C9.3327884,1.79007272 9.38525994,1.8501451 9.40426388,1.92391166 C9.4360209,1.94377498 9.46266415,1.9636158 9.45857624,1.9700458 C9.51936117,2.00043826 9.53750737,2.0099889 9.5619331,2.02627272 C9.65093141,2.08560493 9.70850136,2.17070832 9.64555379,2.29660345 C9.60173935,2.38423233 9.63100013,2.37502628 9.37479051,2.45985366 C9.5802523,2.60576882 9.65598286,2.88661662 9.36411162,2.92163659 C9.21315635,3.00398555 8.99859867,2.9467337 8.75325574,2.82353082 C8.61748159,2.74206633 8.49395289,2.70746872 8.42102985,2.71520002 C8.42185867,2.70391226 8.43225101,2.70458385 8.43722369,2.7377509 C8.43722369,2.94651078 8.38113793,3.03324642 8.21376954,3.06258645 C8.23079645,3.07849393 8.24587793,3.09512321 8.25909869,3.1127509 C8.29036374,3.15443763 8.30889477,3.20003563 8.31644268,3.24369897 C8.64163798,3.05069798 9.21359856,3.23709194 9.33722369,3.6377509 C9.33722369,3.82158956 9.23745713,3.97911572 9.0793589,4.02428664 C8.9015977,4.07507556 8.73607295,3.96472572 8.68201859,3.79660345 C8.66276084,3.75808795 8.70958335,3.76745245 8.63357624,3.805456 C8.61051832,3.81698496 8.59134191,3.82769841 8.57645771,3.83675951 L8.58722369,3.8627509 C8.58722369,3.95700364 8.57896514,4.02899293 8.5393202,4.12782137 C8.86192017,4.1252509 8.92676576,4.70886124 8.63357624,4.855456 C8.49925699,4.92261562 8.41572531,4.96256556 8.30483356,5.01009059 C8.14457758,5.07877173 7.99161617,5.13304836 7.8305485,5.17269976 C7.48690886,5.22997303 7.36048867,5.27721822 7.3078873,5.34666937 C7.28372245,5.50890402 7.16178687,5.63161574 7.02357742,5.67895422 C7.08717696,5.96426814 6.97232218,6.23934487 6.73230621,6.39533342 C6.62482804,6.50281159 6.42994943,6.6002509 6.29972369,6.6002509 L6.21587114,6.580456 C6.28686873,6.61595479 6.2752992,6.62265294 6.25300934,6.6449428 C6.18852128,6.70943086 6.10930679,6.8089423 6.03289741,6.92130903 C5.91223799,7.09874936 5.81232715,7.31256463 5.76269523,7.26201579 C5.90550502,7.4083652 5.90362391,7.59901573 5.75730621,7.74533342 L5.62472369,7.6127509 L5.81222369,7.6127509 L5.81222369,7.8377509 C5.81222369,7.83952346 5.82017426,7.86867555 5.84010181,7.92845819 C5.87642426,8.03742555 5.88722369,8.07702346 5.88722369,8.1377509 C5.88722369,8.2678103 5.78714423,8.4389139 5.64598362,8.60574007 C5.4391438,8.85018713 5.28592604,8.96411829 5.11714117,8.79533342 L5.06222369,8.6627509 C5.06222369,8.68841237 5.07139476,8.7082215 5.07680833,8.7165884 C5.04777027,8.68828508 5.02457307,8.65921284 5.00922361,8.62556449 C4.99327811,8.62535529 4.97370967,8.6252509 4.94972369,8.6252509 C4.66062074,8.6252509 4.3212201,8.44556821 3.84214117,8.04533342 C3.68850963,7.89170188 3.58296813,7.75411834 3.52902683,7.63395657 C3.51316732,7.63788841 3.49799948,7.6315009 3.45909869,7.6315009 C3.32395666,7.6315009 3.2766103,7.54732959 3.26484347,7.45319491 C3.26214727,7.41637443 3.26204097,7.41492284 3.2622026,7.39083508 C3.26596277,7.38687504 3.2871387,7.4252509 3.37472369,7.4252509 L3.24214117,7.37033342 Z M9.16714117,2.60516838 L9.29972369,2.5502509 C9.23168294,2.5502509 9.19040747,2.56899658 9.16694173,2.59554575 C9.16989571,2.59898495 9.17013545,2.6021741 9.16714117,2.60516838 Z M8.56714117,0.92033342 L8.58475994,0.90271465 C8.57037149,0.87950644 8.55335578,0.85255254 8.53324382,0.82085048 C8.53083482,0.82087731 8.52840943,0.82090431 8.52596753,0.82093147 L8.56714117,0.92033342 Z M6.49571741,6.10674147 C6.64700114,6.00588565 6.69628381,5.87035831 6.63722369,5.6627509 C6.63722369,5.58400422 6.63944706,5.55065374 6.65622057,5.50033319 C6.69123027,5.39530412 6.78129869,5.3252509 6.89972369,5.3252509 C6.90734093,5.3252509 6.93722369,5.30134469 6.93722369,5.2877509 L6.95701859,5.20389835 C7.06961352,4.97870849 7.27580758,4.88498392 7.75424826,4.80584918 C7.87898506,4.77466498 8.01385418,4.7268082 8.15711382,4.66541121 C8.25619408,4.62294824 8.33261108,4.5865601 8.45359686,4.52617748 C8.35748605,4.53718499 8.26967294,4.52463115 8.20013074,4.48290582 C8.02088757,4.37535993 8.04697827,4.17533128 8.15701859,4.07889835 C8.19356318,4.00580918 8.20639949,3.96842663 8.21049133,3.91775852 C8.17270415,3.84244891 8.17359165,3.75755989 8.21310032,3.68105664 C8.16587973,3.68466052 8.12046511,3.67980706 8.07793099,3.66562902 C7.92898008,3.61597872 7.86905235,3.4778913 7.92233899,3.30843235 C7.91565425,3.30344759 7.90924026,3.29863048 7.90424826,3.29465262 C7.66629164,3.23516346 7.50664359,3.10621696 7.58813431,2.90249015 C7.64625782,2.75718139 7.81267002,2.7002509 8.02472369,2.7002509 C8.09666292,2.7002509 8.10203513,2.71881996 8.09315139,2.74106426 C8.01678278,2.5471538 8.14095343,2.38141795 8.35014888,2.34655204 C8.49519536,2.32237763 8.67199447,2.35993196 8.84445207,2.44598214 C8.84661855,2.42446331 8.85151246,2.40195753 8.85934557,2.37845819 C8.88888723,2.28983323 8.9591856,2.22360107 9.05629047,2.17508871 C8.79002131,2.17037414 8.63241926,2.06352492 8.59872208,1.93948068 L8.49214117,1.89533342 C8.30630504,1.70949729 8.40895793,1.51060733 8.62399788,1.38516736 C8.66521017,1.36112685 8.71258407,1.33802155 8.76630448,1.31594458 C8.70320486,1.25538786 8.66222369,1.17762761 8.66222369,1.0877509 C8.66222369,1.06529554 8.66034378,1.04776248 8.65168233,1.02467408 C6.60698235,2.11212113 4.80711298,3.75561745 3.48564344,5.72207049 C3.48481529,5.7319779 3.48360944,5.74162104 3.48189478,5.75190904 C3.47361991,5.80155822 3.4654087,5.82430618 3.39567075,5.95110124 C3.48749828,5.99715603 3.50540196,6.00834713 3.5409874,6.05104966 C3.62080228,6.14682751 3.6052608,6.2469323 3.54306229,6.32612275 C3.66112737,6.42431881 3.68467434,6.60082603 3.62760181,6.77204361 L3.60713331,6.80516233 C3.64196653,6.89476445 3.61397064,7.014196 3.54021184,7.10820934 C3.54927136,7.11583651 3.5577653,7.1241297 3.56565347,7.13303614 C3.63960199,7.10444677 3.7146063,7.10774235 3.78810498,7.15674147 C3.90399205,7.23399952 3.91509145,7.35795899 3.86920282,7.4846347 C3.89142154,7.53246776 3.96667705,7.63972775 4.09475827,7.76870941 C4.49919502,8.10574004 4.77215998,8.2502509 4.94972369,8.2502509 C5.19013953,8.2502509 5.30496329,8.26516288 5.34500482,8.38059063 C5.34988808,8.37502101 5.35479627,8.36932331 5.35971376,8.36351173 C5.44428232,8.26356707 5.51222369,8.14740924 5.51222369,8.1377509 C5.51222369,8.13597834 5.50427312,8.10682625 5.48434557,8.04704361 C5.44802312,7.93807625 5.43722369,7.89847834 5.43722369,7.8377509 L5.43722369,7.6127509 L5.49214117,7.48016838 C5.49391787,7.47839168 5.49391787,7.52211012 5.45701859,7.47160345 C5.31975843,7.19708313 5.94244679,6.24443061 6.29972369,6.22830554 C6.31949796,6.2252509 6.42461934,6.17269021 6.49571741,6.10674147 Z M9.21278156,2.14664595 C9.24697469,2.13524477 9.22695631,2.14191757 9.20250147,2.14191757 C9.18493321,2.14191757 9.16856193,2.1394775 9.15348832,2.13508447 C9.13372382,2.14177351 9.11465589,2.14896649 9.09636053,2.15668885 C9.10116904,2.16237725 9.10624077,2.16790022 9.11156447,2.17326822 C9.14516389,2.16951836 9.17583712,2.16050012 9.21278156,2.14664595 Z M9.22465373,1.41912981 C9.22219014,1.4179417 9.21925628,1.41652357 9.21587114,1.414831 C9.20636005,1.41007545 9.21332332,1.41661019 9.23657837,1.43978135 C9.23234431,1.43379572 9.22818285,1.42687458 9.22465373,1.41912981 C9.22219014,1.4179417 9.21925628,1.41652357 9.21587114,1.414831 L9.22465373,1.41912981 Z M5.43722369,8.6627509 C5.43722369,8.57794471 5.41076538,8.52583579 5.36110342,8.47208422 C5.35898489,8.43613456 5.35379806,8.40593889 5.34500482,8.38059063 C5.30697038,8.42397094 5.27044884,8.45958061 5.24283103,8.48070222 C5.26876407,8.46619323 5.30499595,8.46202626 5.36221552,8.51142409 C5.36220082,8.4976036 5.36183513,8.48450071 5.36110342,8.47208422 C5.35606683,8.46663287 5.35079157,8.46116463 5.34528105,8.45564367 C5.35090129,8.46299455 5.36187379,8.48367515 5.36221552,8.51142409 C5.36222097,8.51201387 5.38722369,8.56245614 5.43722369,8.6627509 Z M9.24139179,1.254419 L9.22472369,1.2377509 L9.22472369,1.28457836 C9.22909691,1.27406748 9.2346185,1.26391786 9.24139179,1.254419 Z M5.36222265,8.51143025 C5.36187379,8.48367515 5.35090129,8.46299455 5.34604187,8.45662179 C5.35079157,8.46116463 5.35606683,8.46663287 5.36110342,8.47208422 C5.36183513,8.48450071 5.36220082,8.4976036 5.36222265,8.51143025 C5.30499595,8.46202626 5.26876407,8.46619323 5.24737686,8.47808052 C5.27044884,8.45958061 5.30697038,8.42397094 5.34500482,8.38059063 C5.35379806,8.40593889 5.35898489,8.43613456 5.36110342,8.47208422 C5.41076538,8.52583579 5.43722369,8.57794471 5.43722369,8.6627509 L5.24972369,8.6627509 L5.38230621,8.53016838 L5.36222265,8.51143025 Z M9.22472369,1.28457836 C9.2055742,1.33060348 9.20844328,1.38355549 9.22465373,1.41912981 C9.2246693,1.41913732 9.22469262,1.37428684 9.22472369,1.28457836 Z M19.1823062,1.33016838 L19.1775008,1.32817792 C19.1801359,1.32774759 19.1801911,1.32805327 19.1823062,1.33016838 Z M17.0070186,3.19660345 L17.1747237,3.1127509 L16.9872237,3.1127509 C16.9872237,3.12757699 16.9872237,3.14044919 16.9872237,3.15171082 C16.9929378,3.16663724 16.9995267,3.18161956 17.0070186,3.19660345 Z M17.1573062,7.52033342 C17.1673586,7.51028102 17.1745316,7.49613556 17.1786575,7.48043815 L17.1573062,7.52033342 Z M19.365431,10.790629 C19.1479517,10.7181359 18.8239277,10.5021199 18.6921412,10.3703334 C18.6922658,10.3704581 18.6857873,10.3668589 18.6737643,10.3628512 C18.6466149,10.3538014 18.61466,10.3502509 18.5997237,10.3502509 C18.5470277,10.3502509 18.4861856,10.3364411 18.424497,10.3022534 C18.3933741,10.3261992 18.3878739,10.2857361 18.4323062,10.3301684 L18.8073062,10.7051684 C18.9563381,10.8542003 19.157139,10.9713342 19.3497237,11.0252509 C19.5002338,11.0252509 19.6468209,11.04696 19.761406,11.0930886 C19.7176589,10.9818614 19.6491297,10.9344245 19.365431,10.790629 Z M23.2437143,8.93374461 C23.2660395,8.90025673 23.2811935,8.86652861 23.289889,8.83450761 C23.2022015,8.88743634 23.0807136,8.96621921 22.9948116,9.029919 C23.0784432,9.0634072 23.1461383,9.1142329 23.1846511,9.1728568 C23.1771609,9.104278 23.1970583,9.0261466 23.2437143,8.93374461 Z M27.1671412,12.6953334 C27.023718,12.5519102 26.8398715,12.5377682 26.7924288,12.5716034 C26.7738952,12.6086706 26.770557,12.6172545 26.770557,12.6044176 C26.770557,12.5850187 26.8125596,12.6354218 26.9823062,12.8051684 C27.0412273,12.8640876 27.070312,12.89338 27.1059848,12.9300437 C27.1277008,12.9524298 27.1277008,12.9524298 27.1493884,12.9751072 C27.3387869,13.1739756 27.4122237,13.2683943 27.4122237,13.3877509 C27.4122237,13.3851716 27.4362713,13.4252509 27.3747237,13.4252509 C27.5224879,13.4252509 27.6568243,13.5341073 27.6987596,13.6728469 C27.8371538,13.5742556 28.0608624,13.3614078 28.0968456,13.2534582 L28.1336113,13.1431609 C27.8042123,13.1275428 27.4315033,12.9596956 27.1671412,12.6953334 Z M21.8500913,2.76855136 L21.8171411,2.75066154 C21.8279173,2.75688754 21.8389327,2.76285742 21.8500913,2.76855136 Z M23.1846511,9.1728568 C23.205643,9.2048104 23.2179651,9.2390807 23.2194726,9.2741231 C23.2001795,9.242565 23.1886032,9.2090406 23.1846511,9.1728568 Z M26.1468456,16.2970436 C26.0974949,16.1489915 26.0254903,16.0546174 25.8300399,15.8582613 C25.4045684,15.5720277 25.1980483,15.3256307 25.092822,15.0082263 C25.0407057,14.7997613 24.8836464,14.6252509 24.8247237,14.6252509 C24.6461703,14.6252509 24.4872237,14.4663043 24.4872237,14.2877509 C24.4872237,14.1557944 24.2602647,13.8478624 23.9779955,13.6231889 C23.9733417,13.631522 23.9690474,13.6387323 23.9641921,13.6465007 C23.9375095,13.689193 23.9099476,13.7222491 23.8714807,13.7420147 C23.9215947,13.7942347 23.9779152,13.8526729 24.0372237,13.9127509 L24.0573062,13.9301684 C24.1128248,13.985687 24.1705115,14.0476242 24.2315668,14.1166433 C24.321326,14.2181102 24.5630949,14.5109571 24.5823062,14.5301684 L24.6372237,14.6627509 C24.6372237,14.6938206 24.6673969,14.7508144 24.7254176,14.8185053 C24.7486846,14.84565 24.7688601,14.8667222 24.8073062,14.9051684 C24.9016522,14.9995144 24.9494622,15.1190394 25.0816254,15.5172755 C25.1330887,15.7231287 25.1636089,15.778331 25.2537844,15.8293005 C25.421452,15.8536609 25.6122237,15.9856324 25.6122237,16.1627509 C25.6122237,16.1448738 25.6412152,16.1738653 25.7335762,16.2200458 C25.8761423,16.2913289 26.0140997,16.4132071 26.2948473,16.6973366 C26.2486782,16.590059 26.2007472,16.4587486 26.1468456,16.2970436 Z M21.5822565,2.49264203 C21.6228971,2.53399888 21.6540117,2.5791555 21.6807331,2.63374461 C21.7101689,2.67789822 21.7603305,2.71783891 21.8171411,2.75066154 C21.7921436,2.70027812 21.7804397,2.61136568 21.8785453,2.51251833 C21.7790929,2.51622282 21.6790442,2.5100219 21.5822565,2.49264203 Z M22.0348035,10.4424442 C22.0763133,10.4104346 22.1289011,10.3822808 22.2283711,10.3325458 C22.3176852,10.2878888 22.3567349,10.2655747 22.3671412,10.2551684 C22.6310134,9.9912961 22.8158732,9.9628562 23.3555485,10.052802 C23.7609983,10.120377 24.1263379,10.0473091 24.2187143,9.9087446 C24.287652,9.805338 24.2555219,9.7651753 23.790431,9.590629 C23.4822909,9.4879156 23.2937274,9.3955832 23.2194726,9.2741231 C23.2223894,9.3419247 23.1848205,9.4126166 23.09123,9.4750103 C22.9778865,9.5505727 22.7885243,9.5657216 22.6497237,9.5252509 C22.5322244,9.5252509 22.4277674,9.4934596 22.3577662,9.4234584 C22.3007831,9.3664753 22.277177,9.2955158 22.2836344,9.2256549 C22.1923636,9.2270774 22.172744,9.2327852 22.1501873,9.2508305 C22.1267039,9.2696173 22.0966054,9.3054487 22.0497237,9.3752509 C21.8777883,9.6044981 21.7123663,10.2245702 21.7235182,10.3750105 C21.7963472,10.4068752 21.8488782,10.4672569 21.8742209,10.542959 C21.9236609,10.4982916 21.9795958,10.4623794 22.0348035,10.4424442 Z M22.219293,2.46079658 C22.2374157,2.46504093 22.2559043,2.46988783 22.2747237,2.4752509 C22.3646945,2.4752509 22.4189005,2.47475621 22.4528504,2.47280339 C22.4421934,2.44198253 22.4396956,2.4104963 22.4443224,2.37827339 C22.3746997,2.41143779 22.2988781,2.43921357 22.219293,2.46079658 Z M16.2372237,12.2627509 L16.2372237,12.5627509 C16.2372237,12.8742235 16.0321851,13.1561515 15.6835762,13.330456 C15.5743158,13.3850862 15.5277064,13.4091427 15.4771247,13.4380465 C15.4181819,13.4717281 15.3778649,13.4997747 15.3085762,13.555456 C15.0940823,13.662703 14.9345107,13.662703 14.7921412,13.5203334 C14.7113942,13.5016573 14.6804531,13.5002509 14.6840164,13.490629 C14.2989349,13.6189895 13.8869416,13.1657969 13.9872237,12.7877509 C13.9872237,12.6500505 13.9808295,12.5278504 13.9583298,12.3978524 C13.9485495,12.3413438 13.9363525,12.2905643 13.9218456,12.2470436 C13.8632113,12.0711408 13.8405495,11.9982992 13.8229386,11.9190504 C13.778235,11.7178839 13.7877547,11.5716375 13.9791059,11.5524048 C14.2254742,11.4417698 14.8498592,11.3252509 15.1497237,11.3252509 C15.3189463,11.3252509 15.3903329,11.22327 15.3570186,11.0716034 C15.1890559,10.7356781 14.9368338,10.4252509 14.8042483,10.4196526 C14.3073029,10.2954163 14.3073029,9.8252509 14.8497237,9.8252509 C14.9068188,9.8252509 14.9097916,9.835549 14.9025167,9.8455966 C14.8876811,9.7784717 14.8908102,9.7465644 14.9062206,9.7003332 C14.9412303,9.5953041 15.0312987,9.5252509 15.1497237,9.5252509 L15.2335762,9.5450458 C15.2345689,9.5455421 15.5209281,9.2812105 15.5820186,9.1038984 C15.6858381,8.89625941 15.8068466,8.7752509 15.9747237,8.7752509 C15.994209,8.7752509 16.0412268,8.69489987 16.030092,8.60831777 C15.9270674,8.50523176 15.9559737,8.52987993 15.9559737,8.4471259 C15.9559737,8.31198387 16.040145,8.26463751 16.1342797,8.25287067 C16.1725868,8.25006561 16.1726113,8.25006382 16.1996718,8.25025054 C16.1888834,8.25017599 16.2219898,8.22531978 16.2921412,8.15516838 C16.3754849,8.07182468 16.4676852,8.01913875 16.740431,7.88487278 C16.7848936,7.87005192 16.8104834,7.86130169 16.8275688,7.85487789 C16.5216889,7.23998898 16.5008608,6.99005098 16.7908711,6.8450458 C17.1561604,6.66240116 17.3019287,6.9508124 17.2095428,7.41968576 C17.2313978,7.43380123 17.2628619,7.45334561 17.3073062,7.48016838 C17.3840829,7.55694507 17.4153645,7.55694507 17.4921412,7.48016838 C17.7065599,7.26574967 17.9188828,7.25006181 18.0602982,7.47190234 C18.1025396,7.43986785 18.1647032,7.39070782 18.2622237,7.3127509 C18.6536173,7.01920569 18.6491153,7.0221259 18.7965987,7.0221259 C18.8606598,7.0221259 18.9210615,7.03878844 18.9835762,7.0700458 C19.0592063,7.10786084 19.0293312,7.11781921 19.1421412,6.95516838 C19.3001,6.79720956 19.2981806,6.80392745 19.2570186,6.72160345 C19.0459598,6.2994858 19.3037845,5.8572746 19.7295496,6.09743579 C19.4276745,5.9113577 19.4276745,5.4891441 19.7445826,5.33354234 C20.1380322,5.21248093 20.3967408,5.11912914 20.5420619,5.0467131 C20.3876899,5.0103265 20.0723847,5.10281497 19.7461916,5.29853082 C19.2511821,5.59553655 18.980026,5.52158489 18.792822,4.95822633 C18.6971536,4.57555302 18.7304127,4.37599894 18.9608192,4.07169285 C19.2307312,3.58585128 19.2597183,3.51442329 19.2629467,3.51892486 C19.0915916,3.37852686 18.8135748,3.60094033 18.8622237,3.8627509 C18.8622237,4.02054187 18.8389323,4.1137073 18.70373,4.24376033 C18.3476267,4.48116252 18.2622237,4.63061777 18.2622237,4.9127509 C18.2622237,5.07954409 18.2820836,5.14077876 18.3436468,5.21260252 C18.3630273,5.23521308 18.3819657,5.25482789 18.4323062,5.30516838 C18.4319454,5.30480757 18.629022,5.46605204 18.6553796,5.54512486 C18.6784913,5.61446008 18.6693161,5.67188058 18.639359,5.72350323 C18.685754,5.80025093 18.6775311,5.9063585 18.6010562,5.98283342 C18.5459016,6.03798803 18.4613269,6.07453902 18.3771878,6.07524062 C18.411583,6.07814477 18.3822861,6.27359324 18.4674288,6.40389835 C18.6011339,6.67130855 18.5438983,6.9002509 18.2247237,6.9002509 C18.193654,6.9002509 18.1366602,6.93042408 18.0689693,6.98844485 C18.0418246,7.01171176 18.0207524,7.03188726 18.0057331,7.04175719 C17.912415,7.18173436 17.8897407,7.21070711 17.8169096,7.24712267 C17.6039367,7.35360911 17.5934916,7.34142316 17.2671412,6.84533342 C17.1147248,6.69291706 16.9500519,6.45767001 16.8687143,6.29175719 L16.7823062,6.39533342 C16.5150635,6.66257616 16.3981638,6.7502509 16.1997237,6.7502509 C15.8471444,6.7502509 15.7122237,6.6692985 15.7122237,6.3377509 C15.7122237,6.17249116 15.7027112,6.10590341 15.6747237,6.0752509 C15.379876,5.68212066 15.41891,5.42839951 15.8421412,5.00516838 C15.860515,4.9867945 15.8622237,4.97995993 15.8622237,4.9127509 C15.8622237,4.79107783 15.8756422,4.7284583 15.9738424,4.66299147 C16.068613,4.59981108 16.1781794,4.60792711 16.3340164,4.65987278 C16.4029222,4.6828414 16.4773318,4.6195787 16.47664,4.55068977 C16.462484,4.53350989 16.4466235,4.51278398 16.4247237,4.48358423 C16.3952678,4.44547314 16.367317,4.4194304 16.3408711,4.405456 C16.268067,4.36905394 16.2487628,4.3582602 16.2166868,4.32865155 C16.0825289,4.20481344 16.1347475,4.06136948 16.2584059,3.96429183 C16.2969588,3.93402602 16.3355871,3.90852135 16.4415905,3.84423173 C16.385212,3.78525185 16.4059737,3.79225911 16.4059737,3.7221259 C16.4059737,3.58698387 16.490145,3.53963751 16.5842797,3.52787067 C16.6225934,3.52506513 16.6226113,3.52506382 16.6496858,3.52525064 C16.6384068,3.52517295 16.682167,3.4901577 16.7820186,3.40389835 C16.8145416,3.33885234 16.8577948,3.28118145 16.9088078,3.23016838 C16.9353191,3.20365715 16.9617982,3.18070704 16.9872237,3.16111562 C16.8982136,2.9191984 17.0214572,2.7002509 17.2497237,2.7002509 C17.298878,2.7002509 17.3052,2.68339225 17.3158711,2.680456 C17.1384432,2.59174201 17.03836,2.40408614 17.2309737,2.2596259 C17.3132604,2.19791084 17.4427458,2.1752509 17.6247237,2.1752509 C17.6390752,2.15823729 17.669881,2.12654312 17.7171412,2.08016838 C17.7647416,2.03256792 17.8144752,2.00010665 17.8627321,1.97953646 C17.8549443,1.94342353 17.8717632,1.89961081 17.9140162,1.78954338 C17.9691117,1.73444786 17.9950664,1.73034975 18.0894953,1.7265726 C18.1180359,1.72543097 18.1469048,1.72523188 18.2247237,1.7252509 C18.3325851,1.7252509 18.4426508,1.70034284 18.5090631,1.66547595 L18.4872237,1.5377509 C18.4872237,1.43419751 18.5711703,1.3502509 18.6747237,1.3502509 C18.68966,1.3502509 18.7216149,1.34670036 18.7487643,1.33765056 C18.8618894,1.23542015 18.9752274,1.20123748 19.083389,1.22762036 C19.1328904,1.26673036 19.224339,1.22177466 19.198005,1.21629838 C19.2241424,1.20006325 19.2507367,1.18895594 19.2841681,1.17959515 C19.3056592,1.17357763 19.3271789,1.17019217 19.3479694,1.16899463 C19.3864698,1.1419831 19.4370546,1.1252509 19.4997237,1.1252509 C19.5356088,1.1252509 19.5763003,1.13203281 19.6210762,1.1544208 C19.6456509,1.16670812 19.6678295,1.18251815 19.6869389,1.20136587 C19.7176966,1.20253787 19.7497285,1.20494185 19.815431,1.20987278 C20.0858642,1.11972838 20.2637032,1.18934864 20.2305714,1.35386521 C20.3102216,1.3153151 20.401826,1.26616687 20.5042483,1.20584918 C20.8669852,1.11516494 21.0673028,1.11516494 21.2073062,1.25516838 C21.5732726,1.17392559 22.8372237,1.51863953 22.8316254,1.79227547 C22.8408897,1.82933273 22.8447167,1.86560937 22.843603,1.90094142 C22.9889698,1.79696557 23.1242216,1.7533813 23.2340164,1.80987278 C23.2618272,1.81914305 23.2931139,1.73310454 23.1639438,1.55921885 C22.8631191,1.05784436 22.9579498,0.86818289 23.4747237,0.9752509 C23.882495,0.9752509 24.0859136,1.2430327 23.7756955,1.44250193 C23.8395435,1.45028056 23.8855055,1.38867999 23.9889438,1.21628295 C24.0435318,1.12530296 24.16267,1.09770242 24.2517041,1.15540972 C28.3847947,3.83426472 31.1597987,8.32811454 31.6114051,13.1452495 C31.6217161,13.2552335 31.5351899,13.3502509 31.4247237,13.3502509 L31.3497237,13.3502509 C31.1845677,13.3502509 31.0681406,13.3065907 30.7957174,13.1687603 C30.6272255,13.0564324 30.5980801,13.0564324 30.0332647,13.1972265 C29.1248278,13.3623968 28.7229696,13.3582409 28.5753318,13.0660441 C28.5706315,13.0665221 28.5763305,13.1208068 28.5924288,13.2288984 C28.6385342,13.3211092 28.8165419,13.4457146 29.0193594,13.5136615 C29.2362949,13.6004357 29.2880551,13.6233674 29.3496443,13.6684327 C29.5088766,13.7849441 29.506438,13.8855349 29.4372237,14.0627509 L29.4372237,14.2877509 L29.2497237,14.2877509 L29.2497237,14.1002509 C29.4763971,14.1002509 29.5049444,14.2858083 29.4425631,14.4417617 C29.41426,14.5125193 29.3625394,14.5901003 29.3073062,14.6453334 C29.2990004,14.6841155 29.2932856,14.7158562 29.2840348,14.7464548 C29.2738978,14.7799851 29.2568165,14.817156 29.2327988,14.8613175 C29.191873,14.9365682 29.1288889,15.0345069 29.0554237,15.1373581 C28.8945995,15.3625119 28.7172178,15.5676483 28.5685415,15.6882819 C28.4628701,15.8532345 28.1938677,16.082579 27.8073062,16.3703334 C27.5937033,16.5839364 27.1062033,16.9964364 27.1323062,16.9703334 C27.0195276,17.083112 26.9032289,17.1476853 26.7908191,17.1561072 C26.8308817,17.2138541 26.8682359,17.2382324 26.9090164,17.2598728 C26.986157,17.2855863 27.0096657,17.2922092 27.0312596,17.2944714 C27.0827799,17.2998688 27.1473271,17.2776412 27.5221356,17.1170572 C28.2377027,16.7917994 28.2055344,16.8062604 28.3105401,16.7658736 C28.3488325,16.7511457 28.378855,16.7411701 28.4052196,16.7351232 C28.4964581,16.7141969 28.5607957,16.715977 28.6276893,16.8096281 C28.6998975,16.9107195 28.6744236,16.9767061 28.6164067,17.0543898 C28.6014456,17.0744224 28.582794,17.0948456 28.5573062,17.1203334 C28.5075305,17.1701091 28.4622237,17.275825 28.4622237,17.3627509 C28.4622237,17.7390677 28.2092477,18.8915141 27.9807331,19.4167572 C27.941302,19.4759038 27.9089262,19.5285146 27.8355036,19.6508855 C27.7978288,19.7136788 27.7807356,19.7419894 27.7594096,19.7766442 C27.6610856,19.9364208 27.5869113,20.0407284 27.5170843,20.1097743 C27.1165767,20.5770332 26.7077884,21.8306506 26.8323062,21.9551684 C26.9512805,22.0741427 27.0372237,22.2746768 27.0372237,22.4627509 C27.0372237,22.4938206 27.0673969,22.5508144 27.1254176,22.6185053 C27.1486846,22.64565 27.1688601,22.6667222 27.2073062,22.7051684 C27.3860724,22.8839346 27.6372237,23.6687823 27.6372237,23.9627509 L27.6372237,24.1127509 C27.6372237,24.3684753 27.4421187,24.6855209 27.2073062,24.9203334 C26.9640123,25.1636273 26.8400475,25.301366 26.7807331,25.4167572 C26.6858802,25.5590365 26.6775796,25.6254417 26.6823062,25.6301684 C26.7555295,25.7033917 26.7555295,25.8221101 26.6823062,25.8953334 C25.6490757,26.9285639 24.4471442,27.773672 23.0335762,28.480456 C22.9409553,28.5267665 22.8283291,28.4892244 22.7820186,28.3966034 L22.5570186,27.9466034 C22.4445186,27.7216034 22.4445186,27.7216034 22.3218456,27.4720436 C22.1911573,27.0799788 22.0738474,26.880552 21.7497237,26.4752509 C21.6380158,26.326307 21.5782171,26.2282898 21.5403406,26.1233404 C21.4935519,25.9936969 21.4872237,25.908793 21.4872237,25.6127509 C21.4872237,25.4631869 21.4881049,25.383876 21.4921897,25.2868632 C21.500685,25.0850987 21.5201273,24.9338936 21.5621577,24.8242395 C21.5612849,24.5846534 21.5513189,24.510204 21.5070186,24.4216034 C21.4477835,24.3031332 21.422576,24.2493572 21.396037,24.1785865 C21.3578089,24.076645 21.3372237,23.9825412 21.3372237,23.8877509 C21.3372237,23.8566812 21.3070505,23.7996874 21.2490297,23.7319965 C21.2347674,23.7153571 21.2216666,23.7009995 21.2048071,23.6835231 C21.1426665,23.6598963 21.09335,23.6125859 21.0465987,23.5502509 C21.0175839,23.5115645 20.9959905,23.4745473 20.9820186,23.4466034 L20.9622237,23.3627509 C20.9622237,23.3128123 20.7271825,23.0564037 20.5207174,22.9187603 C20.2410016,22.7322831 20.1537159,22.4953649 19.9886716,21.5860074 C19.9233298,21.0632728 19.8697857,21.0043744 19.7073062,21.0953334 C19.4784695,21.3241701 19.0872237,21.3893777 19.0968456,21.0970436 C19.061407,20.9907279 18.8152522,20.877118 18.8073062,20.8703334 C18.7667417,20.9108979 18.7083016,20.9503565 18.6075775,21.0106738 C18.5688528,21.0338636 18.3938074,21.1356802 18.3488608,21.1624753 C18.2821389,21.2022518 18.2270408,21.2365531 18.17873,21.2687603 C17.7600517,21.5021568 17.5638636,21.6002509 17.3997237,21.6002509 C17.3042011,21.6002509 17.171924,21.6363265 16.9122237,21.7127509 C16.5625641,21.9749956 16.4203074,21.9879281 15.990431,21.815629 C15.4666743,21.6410435 15.0372237,21.2921148 15.0372237,20.9627509 C15.0372237,20.9493463 14.8978992,20.7702149 14.7457174,20.6687603 C14.4009856,20.4389391 14.276437,20.3529596 14.2334795,20.2604857 C14.2108032,20.2471505 14.1867312,20.232214 14.1623841,20.2159826 C14.1154826,20.1847149 14.0751628,20.1533551 14.0908711,20.155456 C13.8331078,20.0265743 13.7548801,19.8440431 13.8372237,19.5377509 C13.8372237,19.1437251 13.8102164,18.8871562 13.6908648,18.5245227 C13.4721525,17.430961 13.4526795,17.3364815 13.6494215,17.2291158 C13.7039076,17.0786046 13.7953213,16.8773587 13.7600464,16.9626957 C13.7954039,16.8771873 13.8227895,16.7974105 13.8468456,16.7034582 C13.9782371,16.3092836 14.1251843,16.0153892 14.2671412,15.9551684 C14.3725816,15.849728 14.487389,15.4823443 14.4687143,15.4417572 C14.2614665,15.1308855 14.2882885,14.809021 14.5320186,14.5788984 C14.5521206,14.5386944 14.5776087,14.4922494 14.6267849,14.4035217 C14.6506934,14.359349 14.6596684,14.3423488 14.6726436,14.3163984 C14.7159163,14.229853 14.7372237,14.1675697 14.7372237,14.1377509 C14.7372237,13.7029475 14.9711545,13.4690167 15.2823062,13.7801684 C15.2708079,13.7686701 15.5876477,13.6454546 16.0872237,13.3127509 C16.5742454,12.9474847 16.9005783,12.7734404 17.0823062,12.9551684 C17.0408693,12.9137315 17.1647637,12.8820376 17.3042901,12.8283736 C17.3984538,12.7921568 17.4398901,12.7767197 17.5042483,12.7558492 C17.4517716,12.7689683 18.0704022,12.6002509 18.1497237,12.6002509 C18.512481,12.6002509 18.7432207,13.1001869 18.6174288,13.4716034 C18.605539,13.495383 18.593234,13.4748747 18.6835762,13.5200458 C18.7602239,13.5583697 18.8317226,13.5719407 18.9312542,13.5746929 C19.1297005,13.4996578 19.4885407,13.5852013 19.7905593,13.7371892 C20.296437,13.9268933 20.4223672,13.9268933 20.442822,13.8672755 C20.4721065,13.7501374 20.4838288,13.704811 20.4993185,13.6514312 C20.6440543,13.1526494 20.7890344,13.1252466 21.7729802,13.2766988 C22.3399829,13.3475741 22.4312548,13.3410547 22.5658711,13.2200458 C22.8433678,13.0812975 22.9851757,13.0458455 23.1364955,13.128892 C23.3621821,13.1740293 23.4372237,13.040622 23.4372237,12.3377509 C23.4372237,12.024702 23.4350773,11.851148 23.4278509,11.7487349 C23.2665166,11.8982778 23.1265556,11.9252509 22.7997237,11.9252509 C22.6713665,11.9252509 22.6158027,11.9262578 22.6007234,11.9003522 C22.5656256,12.019041 22.4533077,12.0596299 22.3069614,12.0718255 C22.27292,12.0746622 22.2443494,12.0752971 22.1997237,12.0752509 L21.9747237,12.0752509 L21.9747237,11.8877509 L22.1073062,12.0203334 C21.9229046,12.2047351 21.6503117,12.0318398 21.5795213,11.8325963 C21.540665,11.7932853 21.5349406,11.7853432 21.5070186,11.7466034 C21.4695186,11.6716034 21.4695186,11.6716034 21.342822,11.4082263 C21.3211481,11.321531 21.3108001,11.2437816 21.3116535,11.175189 C21.1830544,11.1752509 21.1154947,11.2030129 21.1123394,11.1423555 C21.1119407,11.2395681 21.0849744,11.3097998 21.0188312,11.3502177 C21.4194375,11.5540219 21.448555,11.7790846 21.1323062,12.0953334 C20.8392661,12.3883736 20.546343,12.4598601 20.5149886,12.1042667 C20.4647028,12.0201726 20.4682578,11.9318909 20.5058974,11.8593754 C20.3378988,11.7759564 20.1550684,11.6260283 20.0061461,11.4584193 C19.9881046,11.497145 19.9545082,11.53249 19.9023262,11.558581 C19.8521913,11.5836485 19.796338,11.5895701 19.7421445,11.5783307 C19.7422077,11.5784566 19.7489007,11.6065967 19.7622237,11.6627509 C19.7622237,11.6886029 19.7656394,11.7117539 19.7740887,11.7483675 C19.8138435,11.9206385 19.8138435,11.9887961 19.7073062,12.0953334 C19.680716,12.1221882 19.6644406,12.1377993 19.6464782,12.1517701 C19.5683951,12.2125014 19.473406,12.2390983 19.3765162,12.1422084 C19.3094466,12.0751388 19.3122237,12.1223499 19.3122237,11.8877509 C19.3122237,11.7857661 19.1160384,11.6252509 18.9747237,11.6252509 C18.7412919,11.6252509 18.0939787,11.272171 17.8207174,10.9937603 C17.660365,10.8868587 17.6108271,10.8918125 17.4573062,11.0453334 C17.3383319,11.1643077 17.1377978,11.2502509 16.9497237,11.2502509 C16.7574494,11.2502509 16.7146093,11.299211 16.7424288,11.4288984 C16.8686445,11.6813297 16.7480288,11.9225611 16.4823062,12.0953334 C16.3874695,12.1901701 16.2372237,12.315375 16.2372237,12.2627509 Z M14.9025167,9.8455966 C14.8872384,9.850252 14.8872237,9.8563516 14.8872237,9.8627509 C14.8872237,9.8595998 14.8974025,9.8526601 14.9025167,9.8455966 Z M21.5997237,10.7252509 C21.5743679,10.7252509 21.554285,10.7125951 21.5392819,10.7002151 L21.5997237,10.7252509 Z M20.8872237,12.0377509 L20.8744735,12.0069691 C20.8830954,12.0194752 20.8872237,12.0310748 20.8872237,12.0377509 Z M20.7747237,12.0752509 C20.7836851,12.0752509 20.7928128,12.0729858 20.8016217,12.0689011 L20.7747237,12.0752509 Z M19.4070186,11.7466034 L19.5747237,11.6627509 L19.3872237,11.6627509 C19.3872237,11.6785462 19.3877333,11.6935904 19.3887505,11.7083312 C19.3944852,11.7209527 19.4005733,11.7337128 19.4070186,11.7466034 Z M14.1573062,11.8703334 L14.0247237,11.9252509 C14.1591205,11.9252509 14.1880355,11.8876548 14.1905441,11.8572043 C14.1719768,11.8627787 14.1603649,11.8672748 14.1573062,11.8703334 Z M28.7502737,14.9193937 C28.8155332,14.8280304 28.8705989,14.7424046 28.9033673,14.682153 C28.9122237,14.5793198 28.9468407,14.4754689 29.0421412,14.3801684 C29.0652796,14.3265523 29.0622237,14.3075085 29.0622237,14.2877509 L29.0622237,14.1544176 C29.0622237,14.1044176 29.0622237,14.1044176 29.0718456,14.0034582 C29.0913743,13.9448722 29.0974501,13.9410268 29.10775,13.9510393 C29.0849947,13.9453506 29.0266005,13.9203884 28.890431,13.865629 C28.6869211,13.7977924 28.4944915,13.6830822 28.3634994,13.5398463 C28.1803337,13.8039732 27.8017299,14.1002509 27.5997237,14.1002509 C27.4812987,14.1002509 27.3912303,14.0301977 27.3562206,13.9251686 C27.342138,13.882921 27.3383116,13.8526352 27.3374463,13.7974031 C27.1605972,13.7702155 27.0372237,13.5538882 27.0372237,13.3877509 C27.0372237,13.4190122 26.9611655,13.3212231 26.8778367,13.2337279 C26.8576841,13.2126554 26.8576841,13.2126554 26.8372126,13.1915518 C26.8031137,13.1565058 26.7754075,13.1286017 26.7171412,13.0703334 C26.4202211,12.7734134 26.395557,12.7438165 26.395557,12.6044176 C26.395557,12.5344378 26.4088855,12.5001646 26.4921412,12.3551684 C26.7310045,12.116305 27.1507294,12.1485916 27.4323062,12.4301684 C27.6828623,12.6807244 28.066981,12.815166 28.290431,12.7598728 C28.5765663,12.6644943 28.7166322,12.6644943 28.8573062,12.8051684 L28.9026018,12.8784582 C28.9269405,12.9514741 29.2162593,12.964625 29.9542483,12.8308492 C30.6013673,12.6690694 30.7222219,12.6690694 30.9835762,12.8450458 C31.0857195,12.8961175 31.1573995,12.9291697 31.2145281,12.9491908 C30.7144963,8.39454421 28.0883475,4.15505982 24.2008638,1.57060827 C24.0245565,1.79551926 23.8411389,1.86204244 23.6176646,1.77798615 C23.6101476,2.05156899 23.4120276,2.26382832 23.0908711,2.155456 C23.1246544,2.17234764 23.0368804,2.21871883 22.9550262,2.29427655 C22.9089183,2.33683768 22.8684861,2.38174753 22.8429364,2.417699 C22.8480323,2.40641723 22.8512846,2.37414679 22.7823062,2.30516838 L22.8372237,2.4377509 L22.8372237,2.5877509 L22.7823062,2.72033342 C22.7045471,2.79809253 22.6458554,2.82982252 22.5104801,2.8407772 C22.5207695,2.92580736 22.4876817,3.01495795 22.4073062,3.09533342 C22.1617381,3.34090152 21.5803558,3.15921956 21.3570186,2.82160345 C21.3191822,2.74593071 21.2546928,2.6998668 21.0658711,2.605456 C21.1175768,2.6313088 20.9077331,2.5359253 20.8671412,2.49533342 C20.7805766,2.40876882 20.7880866,2.28109793 20.8694849,2.19969963 C20.8997221,2.16946244 20.9347281,2.14811733 20.9421412,2.15516838 C21.0828152,2.01449434 21.2978811,2.01449434 21.5762339,2.10746516 C21.945505,2.21297119 22.4248538,2.03139556 22.4616669,1.87298849 C22.4466246,1.9045277 22.4224996,1.88911233 22.3947897,1.87689614 C22.2983455,1.83437771 22.1609263,1.78799516 22.0097642,1.74676912 C21.7114062,1.66539876 21.4142408,1.62222088 21.2997237,1.6502509 C21.2283193,1.6502509 21.1927488,1.64802774 21.1417483,1.63527762 C21.0677039,1.61676652 21.0011219,1.57931418 20.9421412,1.52033342 C20.9321446,1.51033686 20.8324622,1.51033686 20.6490985,1.54675058 C20.3498673,1.73377008 20.0841385,1.8377509 19.9122237,1.8377509 C19.7744979,1.8377509 19.6507668,1.76655518 19.6441746,1.62524337 C19.6163873,1.62931906 19.5840267,1.6315009 19.5465987,1.6315009 C19.4958919,1.6315009 19.5368786,1.65346888 19.3672546,1.56114355 C19.3584395,1.5696278 19.3467254,1.5809142 19.3323062,1.59533342 C19.2330166,1.69462301 19.2181693,1.7065009 19.1247237,1.7065009 C19.0504146,1.7065009 19.0258081,1.69898976 18.9689173,1.64598438 C18.9486344,1.65887732 18.9271126,1.66995125 18.9045174,1.67945677 C18.9105134,1.79491177 18.837309,1.9063604 18.7149416,1.97978082 C18.6170612,2.03850912 18.4850181,2.07837614 18.3473101,2.09348946 C18.3450141,2.13220407 18.342249,2.1771744 18.339045,2.22928412 C18.2569246,2.24962937 18.2439642,2.25284028 18.2318766,2.2514409 C18.0608359,2.41680372 18.1005516,2.3815009 18.0090987,2.3815009 C17.9879261,2.3815009 17.9689085,2.3794349 17.9518451,2.37558827 C17.9088734,2.41786425 17.8834361,2.4405916 17.8497237,2.4658759 C17.7838843,2.51525543 17.7172445,2.54582824 17.6416577,2.54980753 C17.720405,2.76997125 17.5994922,3.01288051 17.3509615,3.0650435 L17.3622237,3.1127509 L17.3622237,3.2627509 C17.3622237,3.33377066 17.3220982,3.398695 17.2585762,3.430456 C17.2418001,3.43884407 17.2077865,3.4615198 17.1739729,3.49533342 C17.1499859,3.51932035 17.1307391,3.54498279 17.0823062,3.62033342 C16.9938135,3.70882618 16.9311583,3.77012073 16.8801606,3.81224171 C16.925913,3.95040983 16.8815637,4.09473245 16.7087495,4.12101852 C16.6849652,4.1353202 16.6638587,4.14804947 16.6450644,4.15943747 C16.6577073,4.17335145 16.6704776,4.18854683 16.6836366,4.20499558 C16.7054295,4.23284515 16.7054295,4.23284515 16.7247237,4.25858423 C16.7565019,4.30095513 16.7701375,4.31799963 16.7823062,4.33016838 L16.8276018,4.40345819 C16.9496368,4.7695633 16.5976436,5.12874835 16.2318484,5.0207871 C16.2202362,5.1182574 16.1871148,5.19052482 16.1073062,5.27033342 C15.8078101,5.56982956 15.8004224,5.61784922 15.9573062,5.83016838 C16.0717362,5.94459839 16.0872237,6.05301064 16.0872237,6.3377509 C16.0872237,6.41120331 16.027303,6.3752509 16.1997237,6.3752509 C16.2512836,6.3752509 16.3343839,6.31292564 16.4997237,6.1502509 L16.7247237,5.8502509 C16.8023435,5.74675779 16.9589736,5.75110527 17.0307331,5.85874461 L17.1924288,6.10389835 C17.2681455,6.25533179 17.4097226,6.45758474 17.5557331,6.60874461 C17.6273876,6.71622627 17.6714225,6.78153196 17.7025669,6.82548468 C17.7620283,6.76028121 17.7884309,6.73500216 17.8249225,6.70372362 C17.9198336,6.62237124 18.0133036,6.56453602 18.1126312,6.53934485 C17.9694958,6.2673152 18.0145315,5.86152471 18.2308164,5.73755163 C18.2258379,5.70138806 18.2259322,5.66562466 18.2323916,5.63268341 C18.2132179,5.61548161 18.1910375,5.59422974 18.1671412,5.57033342 C18.1096692,5.51286141 18.0868462,5.48922338 18.0589256,5.45664928 C17.9352306,5.31233853 17.8872237,5.16431708 17.8872237,4.9127509 C17.8872237,4.50113403 18.0383592,4.23664697 18.4671412,3.95516838 C18.485515,3.9367945 18.4872237,3.92995993 18.4908648,3.89952268 C18.3832864,3.36163044 19.0175332,2.854233 19.4823062,3.20516838 C19.528684,3.25154616 19.5458666,3.26996239 19.5676802,3.30037859 C19.7053339,3.49231818 19.6881377,3.53469185 19.2747237,4.2752509 C19.1011776,4.50664571 19.0872937,4.58994878 19.1526018,4.85345819 C19.2544214,5.15891691 19.2513903,5.15809025 19.5532557,4.97697098 C20.0398645,4.68500573 20.5171459,4.56568539 20.7835762,4.7450458 C21.0592549,4.88288514 21.0964904,5.13608669 20.831855,5.31251033 C20.6740746,5.41769726 20.3740539,5.53220896 19.8835762,5.680456 C20.1377509,5.84713314 20.1825469,6.29509276 20.0073062,6.47033342 C19.8321242,6.64551546 19.7025223,6.5807145 19.5457174,6.41876033 C19.5173,6.39981539 19.5162374,6.40151555 19.5924288,6.55389835 C19.7149032,6.79884708 19.6693474,6.95829224 19.4307331,7.19175719 C19.2415448,7.47553974 19.0702411,7.53264096 18.8158711,7.405456 C18.7788477,7.3971259 18.7483301,7.41692111 18.491854,7.6091638 C18.2756463,7.78212995 18.2236441,7.82174255 18.1579191,7.85728275 C18.0198575,7.93193827 17.8843946,7.90484568 17.801005,7.77698166 C17.7889981,7.75857108 17.7792306,7.740801 17.7653741,7.7133272 C17.5656393,7.9370003 17.3404311,7.96409569 17.1701284,7.84885313 C17.2101021,8.02192258 17.1751152,8.1086205 17.0072034,8.18611828 C16.9722705,8.20224112 16.944391,8.21217081 16.8835762,8.230456 C16.6817621,8.33136305 16.5989625,8.37867712 16.5573062,8.42033342 C16.4945363,8.48310338 16.4462204,8.52866726 16.4018873,8.56065559 C16.4386796,8.8536639 16.2444198,9.1502509 15.9747237,9.1502509 C15.9926008,9.1502509 15.9636093,9.1792424 15.9276018,9.2470436 C15.8383169,9.5148983 15.5260097,9.8420624 15.2613714,9.8986786 C15.2548451,10.0313605 15.2108049,10.1094702 15.1280362,10.1528166 C15.3331472,10.2989967 15.5334653,10.5890741 15.7066254,10.9422755 C15.8110882,11.3601265 15.5730011,11.7002509 15.1497237,11.7002509 C14.9276229,11.7002509 14.3455452,11.8114618 14.1933438,11.8563711 C14.2071875,11.9135539 14.2291162,11.9830013 14.2776018,12.1284582 C14.298539,12.1912697 14.3150416,12.2599744 14.3278363,12.3338994 C14.3549069,12.4903076 14.3622237,12.6301388 14.3566254,12.8332263 C14.3183881,12.9861755 14.4795822,13.163489 14.6247237,13.1252509 C14.7002443,13.1252509 14.7466469,13.1273601 14.8055485,13.137177 C14.9056015,13.1538525 14.990875,13.1887371 15.0573062,13.2551684 C15.1412253,13.2060842 15.2056405,13.1612737 15.2910726,13.1124553 C15.349866,13.0788591 15.4001316,13.0529156 15.5158711,12.9950458 C15.7458337,12.8800645 15.8622237,12.7200283 15.8622237,12.5627509 L15.8622237,12.2627509 C15.8622237,12.1101268 16.3119779,11.7353317 16.2457174,11.8067415 C16.4014186,11.7029407 16.4308029,11.6441721 16.392822,11.5582263 C16.2890048,11.1429575 16.523248,10.8752509 16.9497237,10.8752509 C17.0366496,10.8752509 17.1423655,10.8299441 17.1921412,10.7801684 C17.4719536,10.5003559 17.7195172,10.4755996 18.0573062,10.7051684 C18.2534241,10.9012863 18.6695989,11.144028 18.8755172,11.2236219 C18.7503398,11.15232 18.6384531,11.0666453 18.5421412,10.9703334 L18.1671412,10.5953334 C17.990069,10.4182612 17.9548989,10.2424107 18.1320186,10.0788984 C18.21531,9.9123156 18.2164468,9.910383 18.2908711,9.8731708 C18.4242961,9.8064583 18.4552962,9.8281584 18.5823062,9.9551684 C18.651454,9.9752509 18.7194991,9.9828115 18.7923497,10.007095 C18.8553267,10.0280873 18.9113482,10.0592104 18.9573062,10.1051684 C19.0505197,10.1983819 19.3264957,10.3823659 19.5085762,10.4450458 C19.9268865,10.6542009 20.0406864,10.742712 20.1174288,10.9788984 C20.1901975,11.1244358 20.3976853,11.3280485 20.5421048,11.4543746 C20.5548052,11.4100131 20.5438752,11.3811891 20.536572,11.3519763 C20.4875028,11.1556998 20.6175126,11.0049205 20.7698873,11.0088983 C20.8483713,10.8686506 21.0590009,10.8002509 21.2997237,10.8002509 C21.4442701,10.8002509 21.4872237,10.775706 21.4872237,10.7627509 L21.5053084,10.6861428 C21.2350437,10.4382359 21.460698,9.5356185 21.7437143,9.1587446 C21.804124,9.06813 21.8570931,9.0050715 21.9159267,8.95800467 C22.0334657,8.86397345 22.115801,8.8502509 22.3497237,8.8502509 L22.4335762,8.8700458 C22.5031817,8.90484854 22.5394528,8.92332477 22.5647668,8.9397536 C22.6808423,8.74405774 23.234885,8.4002509 23.3997237,8.4002509 C23.702863,8.4002509 23.7524737,8.84658433 23.5674618,9.1215543 C23.5681203,9.1205226 23.5746084,9.1234055 23.9155593,9.2371892 C24.5796397,9.4862193 24.7822499,9.739482 24.5307331,10.1167572 C24.3346479,10.410885 23.8293582,10.511943 23.2938989,10.4226998 C22.8615742,10.3506456 22.7911612,10.3614784 22.6323062,10.5203334 C22.5802125,10.5724271 22.5317621,10.600113 22.3960762,10.667956 C22.3067621,10.712613 22.2677125,10.7349271 22.2573062,10.7453334 L22.1247237,10.8002509 C22.1532771,10.8002509 22.0872237,10.8663043 22.0872237,10.8377509 C22.0872237,11.0163043 21.9282771,11.1752509 21.7497237,11.1752509 C21.6415888,11.1752509 21.6630655,11.1430359 21.6924288,11.2788984 C21.8049288,11.5038984 21.8049288,11.5038984 21.8073062,11.5301684 L21.8823062,11.6051684 L21.9294572,11.7190009 L22.1997237,11.7002509 C22.2344143,11.7002095 22.2515759,11.6999038 22.2695242,11.6986108 C22.2622763,11.7018472 22.2372237,11.7210291 22.2372237,11.8127509 L22.2921412,11.6801684 C22.4097278,11.5625817 22.4837127,11.5502509 22.7997237,11.5502509 C23.0531896,11.5502509 23.1095927,11.5377169 23.2122237,11.4377509 C23.4570374,11.2541407 23.6719528,11.2302612 23.7651018,11.5097082 C23.807463,11.6367916 23.8122237,11.7653315 23.8122237,12.3377509 C23.8122237,12.7037604 23.7789085,12.981047 23.7000803,13.1732625 C23.7170448,13.1823314 23.7332319,13.1930064 23.7484703,13.2050905 C23.8540027,13.1102308 24.0371544,13.160906 24.1872237,13.3127509 C24.5367271,13.5748785 24.8369186,13.9668607 24.860706,14.2521432 C25.1132477,14.2784817 25.3712646,14.5759356 25.4526018,14.9034582 C25.5263648,15.124747 25.6824696,15.3092345 26.0823062,15.5801684 C26.3270926,15.8249548 26.4280234,15.9547229 26.5026018,16.1784582 C26.6166752,16.5206785 26.6994576,16.7035698 26.7666812,16.7707934 C26.7848643,16.7889765 26.7830049,16.7893046 26.8671412,16.7051684 C26.8557441,16.7165654 27.3432441,16.3040654 27.5622237,16.0877509 C27.9361575,15.8073006 28.2126163,15.5677029 28.2570186,15.4788984 L28.3122237,15.4127509 C28.4292053,15.3250147 28.5985046,15.1318704 28.7502737,14.9193937 Z M21.721213,13.6480706 C20.9077463,13.5229219 20.9282001,13.5190559 20.8594622,13.7559372 C20.8457812,13.8030843 20.8346742,13.846031 20.8026018,13.9720436 C20.6770802,14.3486085 20.3530104,14.3486085 19.6408711,14.080456 C19.414377,13.9672089 19.0985884,13.9040512 19.1073062,13.8953334 L18.9747237,13.9502509 C18.7978381,13.9502509 18.6685101,13.9317755 18.5158711,13.855456 C18.2633562,13.7291985 18.1575447,13.5528461 18.2718456,13.3284582 C18.3159041,13.1962827 18.2138894,12.9752509 18.1497237,12.9752509 C18.1298189,12.9752509 17.6830556,13.0968923 17.602845,13.1176966 C17.5620333,13.1314405 17.5233165,13.1459131 17.4389073,13.1783782 C17.0368481,13.3330164 16.9550239,13.3548159 16.8238903,13.2269986 C16.8713398,13.2766606 16.8129777,13.2931821 16.747334,13.3281921 C16.6229038,13.3945548 16.4640974,13.4988456 16.30373,13.6187603 C15.6612774,14.047062 15.2677734,14.2128524 15.0614964,14.0810872 C15.0883841,14.0324287 15.1122237,14.0497089 15.1122237,14.1377509 C15.1122237,14.2420667 15.0757186,14.3487738 15.0080538,14.4841034 C14.9927998,14.5146113 14.9820873,14.5349028 14.9559958,14.5830912 C14.905172,14.6749191 14.8837851,14.7138908 14.8323062,14.7953334 C14.6816134,14.9460262 14.6713142,15.0696163 14.7924288,15.2538984 C14.9062892,15.4816191 14.7405022,16.0121375 14.4835762,16.255456 C14.4242631,16.2851126 14.2962103,16.5412182 14.2066254,16.8082263 C14.1816444,16.9081503 14.1483625,17.0050376 14.1063102,17.1066641 C14.0848249,17.1585869 13.9872237,17.3754784 13.9872237,17.3627509 C13.9872237,17.4337707 13.9470982,17.498695 13.8835762,17.530456 C13.8899186,17.5272848 13.9077795,17.6969639 14.0526018,18.4284582 C14.1815386,18.8152687 14.2122237,19.1067767 14.2066254,19.5832263 C14.1603568,19.7683008 14.1617942,19.7716548 14.3073062,19.8551684 C14.3201179,19.86798 14.3422981,19.8852313 14.3703966,19.9039637 C14.4127262,19.9321834 14.4565991,19.9565572 14.4835762,19.9700458 C14.5470982,20.0018068 14.5872237,20.0667311 14.5872237,20.1377509 C14.5872237,20.0931583 14.7604348,20.2278781 14.95373,20.3567415 C15.1996251,20.5206716 15.4122237,20.7940126 15.4122237,20.9627509 C15.4122237,21.0786995 15.7229905,21.3311975 16.1193594,21.4636615 C16.4430289,21.5931293 16.4472282,21.5927476 16.740431,21.3848728 C17.1025233,21.2641753 17.2452463,21.2252509 17.3997237,21.2252509 C17.4599545,21.2252509 17.5622533,21.1744129 17.9777437,20.9520719 C18.0301958,20.9173214 18.0882216,20.8812753 18.1568366,20.8403702 C18.2042103,20.8121282 18.3788268,20.710561 18.4149167,20.6889491 C18.4873878,20.6455507 18.5316332,20.6156763 18.5908711,20.5700458 C18.817341,20.4568108 19.2028627,20.6014646 19.3853874,20.8767586 C19.4080775,20.8617168 19.4381784,20.8380476 19.4782557,20.801971 C19.9943675,20.4923039 20.267422,20.7926638 20.3591993,21.5292099 C20.5034238,22.3224446 20.5689109,22.5001954 20.72873,22.6067415 C21.009435,22.7938782 21.2841963,23.0831275 21.330425,23.3015818 C21.3336867,23.3210624 21.3676471,23.347258 21.4323062,23.3801684 C21.4771934,23.4250556 21.5024724,23.4514581 21.533751,23.4879497 C21.644961,23.6176947 21.7122237,23.7447465 21.7122237,23.8877509 C21.7122237,23.9322463 21.7235135,23.9838568 21.7471604,24.0469153 C21.7674964,24.1011446 21.7891639,24.1473686 21.8424288,24.2538984 C21.9244095,24.4178597 21.9372237,24.5331877 21.9372237,24.8627509 L21.9174288,24.9466034 C21.8933294,24.9948023 21.8743581,25.1245038 21.8668577,25.3026386 C21.8630632,25.3927579 21.8622237,25.4683149 21.8622237,25.6127509 C21.8622237,25.8616068 21.8668224,25.9233062 21.8930718,25.9960389 C21.915453,26.0580534 21.9585221,26.1286487 22.0461366,26.2456206 C22.3922666,26.6782831 22.531367,26.9147537 22.6674288,27.3288984 L22.8924288,27.7788984 C22.9668323,27.9277054 22.992028,27.9780967 23.0331044,28.0602496 C24.296384,27.4106451 25.3806469,26.6452652 26.3214323,25.7248363 C26.2872625,25.5799674 26.3385588,25.4047732 26.4570186,25.2288984 C26.5312749,25.0803858 26.660435,24.9368745 26.9421412,24.6551684 C27.1123287,24.4849809 27.2622237,24.2414015 27.2622237,24.1127509 L27.2622237,23.9627509 C27.2622237,23.7598445 27.0413162,23.0695084 26.9421412,22.9703334 C26.897254,22.9254463 26.871975,22.8990437 26.8406964,22.8625521 C26.7294864,22.7328071 26.6622237,22.6057553 26.6622237,22.4627509 C26.6622237,22.375825 26.6169169,22.2701091 26.5671412,22.2203334 C26.249036,21.9022283 26.7170813,20.4668896 27.2421412,19.8551684 C27.2952284,19.8020811 27.356219,19.7163132 27.4400378,19.5801076 C27.4603784,19.5470541 27.4766186,19.5201563 27.5139438,19.4579496 C27.5905212,19.3303205 27.624812,19.274598 27.652384,19.238891 C27.8451997,18.7889877 28.0872237,17.6864341 28.0872237,17.3627509 C28.0872237,17.3317423 28.0895599,17.300395 28.0939953,17.2691304 C27.9942733,17.314338 27.8593669,17.3756566 27.6735836,17.4600906 C27.2068702,17.6601106 27.1404957,17.6829674 26.9921877,17.6674304 C26.9330629,17.6612364 26.8955404,17.6506655 26.7658711,17.605456 C26.6341585,17.5395997 26.5431542,17.4713465 26.4921412,17.4203334 C26.33432,17.3495942 26.1837246,17.188359 26.0421412,16.9703334 C25.7988473,16.7270396 25.6611086,16.6030747 25.5658711,16.555456 C25.3622024,16.4536216 25.2418829,16.3352493 25.2373562,16.1723295 C25.2358431,16.2234696 25.1971892,16.2002509 25.1997237,16.2002509 L25.1158711,16.180456 C24.8964509,16.0707459 24.7995293,15.9350556 24.7218456,15.6220436 C24.6249852,15.3314624 24.5727952,15.2009874 24.5421412,15.1703334 C24.497254,15.1254463 24.471975,15.0990437 24.4406964,15.0625521 C24.3501224,14.9568823 24.2886992,14.852999 24.2690227,14.7408292 C24.182691,14.6400023 24.0130443,14.4355925 23.9506931,14.3651085 C23.8943719,14.3014411 23.8417565,14.2449488 23.8122237,14.2127509 C23.3426477,13.74584 23.2872237,13.6842577 23.2968456,13.5970436 C23.2862909,13.5653796 23.2792267,13.5336846 23.2755706,13.5025689 C23.1988079,13.5083334 23.1125086,13.5008825 23.0158711,13.480456 C22.9642717,13.4546563 22.9060796,13.4692043 22.7823062,13.5203334 C22.579731,13.7229086 22.4140099,13.7347458 21.721213,13.6480706 Z M22.6323062,9.3203334 C22.6419232,9.3107164 22.6492168,9.2972028 22.6535801,9.2816841 C22.6521889,9.2807317 22.6508291,9.2797823 22.6494962,9.278833 L22.6323062,9.3203334 Z M23.6622237,13.4627509 C23.6622237,13.4497464 23.6625787,13.4371894 23.6632734,13.4250737 C23.6574068,13.4313188 23.6524095,13.4380791 23.6478528,13.445137 C23.650315,13.4410233 23.6550688,13.4322177 23.6639528,13.4147816 C23.6714215,13.314988 23.7026202,13.2463037 23.7484703,13.2050905 C23.8027332,13.2481216 23.8449653,13.3090218 23.8674288,13.3788984 C23.8827392,13.4095193 23.891351,13.4264404 23.8969876,13.4368327 C23.8809235,13.4132601 23.851511,13.3877509 23.7747237,13.3877509 C23.7500927,13.3877509 23.7303362,13.3903756 23.7141863,13.3949822 L23.8497237,13.4627509 L23.6622237,13.4627509 C23.6622237,13.4497464 23.6625787,13.4371894 23.6632734,13.4250737 L23.6622237,13.4627509 Z M23.4379519,1.34660978 C23.4506549,1.34702394 23.4624714,1.34750598 23.4733943,1.34796814 C23.4531533,1.31313176 23.4292097,1.26846471 23.4062493,1.23923974 C23.37845,1.26690117 23.3566434,1.2965828 23.341052,1.32755032 C23.3662375,1.33234998 23.3976548,1.33855035 23.4379519,1.34660978 Z M22.6229312,9.1582934 C22.6508161,9.1861783 22.6607557,9.2248964 22.6576947,9.2590402 L22.6872237,9.1877509 C22.6872237,9.176247 22.687083,9.1654283 22.686723,9.1551845 C22.6217261,9.1500038 22.6119831,9.1473453 22.6229312,9.1582934 Z M18.6747237,1.5377509 L18.6747237,1.7252509 C18.726454,1.7252509 18.7944991,1.71769033 18.8673497,1.6934068 C18.8840679,1.68749763 18.8964572,1.68284762 18.9045174,1.67945677 C18.9028782,1.64789439 18.8262803,1.6006591 18.6747237,1.5377509 Z M18.9045174,1.67945677 C18.892427,1.68454304 18.8800294,1.68918025 18.8673497,1.6934068 C18.7944991,1.71769033 18.726454,1.7252509 18.6747237,1.7252509 L18.6747237,1.5377509 L18.8073062,1.48016838 C18.8704745,1.58146492 18.9028782,1.64789439 18.9045174,1.67945677 Z M23.6820186,13.3788984 L23.7141863,13.3949822 C23.6910614,13.4015784 23.6753312,13.412238 23.6632734,13.4250737 C23.6634722,13.421607 23.6636988,13.4181763 23.6639528,13.4147816 C23.6686673,13.405529 23.6745448,13.3938459 23.6820186,13.3788984 Z M16.5001461,4.08690609 L16.5085762,4.0700458 C16.4952424,4.06337888 16.4851825,4.0581958 16.4786211,4.05496575 C16.4763606,4.05454479 16.4740812,4.05415182 16.4717822,4.05378692 C16.4833331,4.06455079 16.4926858,4.07566622 16.5001461,4.08690609 Z M16.8408648,7.35097913 L16.9984415,7.38249447 C16.9942832,7.37101361 16.9904409,7.36016816 16.9868966,7.34992383 L16.8921412,7.25516838 C16.875102,7.2722075 16.8606455,7.29032253 16.8487707,7.30920369 C16.8464004,7.32251006 16.8437724,7.33644119 16.8408648,7.35097913 Z M20.9241711,4.65100101 C20.9068552,4.67381594 20.8844348,4.69254419 20.8586111,4.70548439 C20.896474,4.69011147 20.9129826,4.67126582 20.9232016,4.65097994 C20.904242,4.65057118 20.883449,4.65032496 20.8607018,4.65026518 C20.8840684,4.64890971 20.9150696,4.63216204 20.9360835,4.60763529 C20.9382535,4.58908889 20.9363874,4.57152595 20.9319569,4.5577587 C20.9349895,4.5642763 20.9416927,4.57638339 20.9495138,4.58843588 C20.9503105,4.58700692 20.9510743,4.58556243 20.9518038,4.58410345 C20.9587546,4.57020174 20.9613622,4.55914711 20.9620338,4.54590384 C20.9613516,4.5626259 20.9584035,4.57896502 20.9535028,4.59443556 C20.9626277,4.60783587 20.9728674,4.62072958 20.9823062,4.63016838 C20.9834965,4.63135868 20.9847418,4.63256173 20.9860361,4.63377367 L20.9241711,4.65100101 Z M20.9241711,4.65100101 C20.9068552,4.67381594 20.8844348,4.69254419 20.8586111,4.70548439 C20.896474,4.69011147 20.9129826,4.67126582 20.9232016,4.65097994 C20.904242,4.65057118 20.883449,4.65032496 20.8607018,4.65026518 C20.8840684,4.64890971 20.9150696,4.63216204 20.9360835,4.60763529 C20.9382535,4.58908889 20.9363874,4.57152595 20.9319569,4.5577587 C20.9349895,4.5642763 20.9416927,4.57638339 20.9495138,4.58843588 C20.9503105,4.58700692 20.9510743,4.58556243 20.9518038,4.58410345 C20.9587546,4.57020174 20.9613622,4.55914711 20.9620338,4.54590384 C20.9613516,4.5626259 20.9584035,4.57896502 20.9535028,4.59443556 C20.9626277,4.60783587 20.9728674,4.62072958 20.9823062,4.63016838 C20.9834965,4.63135868 20.9847418,4.63256173 20.9860361,4.63377367 C21.0084935,4.6169826 21.0341423,4.60363568 21.062306,4.59424778 C21.1124743,4.57752502 21.145775,4.57526449 21.2240101,4.57525096 C21.1597478,4.57526695 21.1497237,4.5777241 21.1497237,4.7346259 C21.1497237,4.77004996 21.113571,4.70904235 21.0921412,4.67033342 C21.0861417,4.66433393 21.0620952,4.65867512 21.0122019,4.65490308 C21.0258888,4.6646682 21.0405855,4.67353449 21.0529972,4.67936104 C21.0111845,4.66459945 20.9148027,4.6782179 20.8920922,4.78703553 C20.9006356,4.73490685 20.9264067,4.68786322 20.9641141,4.65221519 L20.9241711,4.65100101 Z M20.8497237,4.2752509 C21.134464,4.2752509 21.2428762,4.29073836 21.3807331,4.43374461 C21.5953143,4.75561641 21.5986688,4.94429173 21.2419901,4.95011215 C21.1897564,5.07217293 21.0457237,5.08059459 20.9207129,5.03059028 C20.8499553,5.00228721 20.7723743,4.95056659 20.7171412,4.89533342 C20.661908,4.84010025 20.6101874,4.76251932 20.5818843,4.69176165 C20.5359188,4.57684797 20.5393224,4.44586105 20.6349809,4.38487941 C20.6810976,4.31788422 20.7570664,4.2752509 20.8497237,4.2752509 Z M14.1372237,8.3627509 C14.1372237,8.37574602 14.1390768,8.38467997 14.143788,8.39055767 L14.1372237,8.3627509 Z M13.6320186,6.92889835 C13.6645416,6.86385234 13.7077948,6.80618145 13.7588078,6.75516838 C13.8249942,6.688982 13.8909806,6.64499106 13.9408711,6.6200458 L14.0247237,6.6002509 C14.2411919,6.6002509 14.2788617,6.76976504 14.2175631,6.92301165 C14.2430782,6.85922391 14.151908,7.07412496 14.1372237,7.0877509 L14.1174288,7.17160345 C14.3874842,7.08495567 14.457491,7.28178191 14.3424288,7.62160345 C14.3302084,7.64604425 14.3209415,7.67036498 14.3148091,7.69196312 C14.5758653,7.81029212 14.9250509,8.09445718 15.0057331,8.25874461 C15.1094899,8.41437982 15.1487694,8.46005301 15.1927608,8.47169491 C15.3195948,8.4213963 15.4322901,8.42983001 15.5119831,8.54936961 C15.5591213,8.6200769 15.5622237,8.65575426 15.5622237,8.8127509 C15.5622237,9.2040859 15.2914648,9.4256159 14.7747237,9.5252509 C14.7572607,9.5252509 14.6643408,9.5650737 14.4693594,9.6618403 C14.1116236,9.8049346 14.0032398,9.8287262 13.9312206,9.6126686 C13.8892495,9.4867554 13.928179,9.4148286 14.0948934,9.2810369 C13.9293526,9.230807 13.9077703,9.0817725 14.0421412,8.83016838 C14.0296401,8.84266949 14.0248296,8.90416064 14.0585799,8.94963311 C14.0370414,8.59896683 14.0379534,8.59992109 14.0721211,8.6356708 C14.0931405,8.6251611 14.1043627,8.61794687 14.1658711,8.5700458 C14.1957735,8.55509462 14.1992159,8.53099801 14.1570186,8.44660345 L14.1458429,8.39926242 C14.0350171,8.39187427 13.9018367,8.3436732 13.7988424,8.27501033 C13.6597696,8.1822951 13.5733808,8.05326783 13.603679,7.90881089 C13.3472162,7.73664776 13.3895383,7.24738579 13.6320186,6.92889835 Z M14.6820186,8.44660345 C14.6585252,8.3996166 14.5797053,8.32172173 14.4889966,8.24510447 C14.4976216,8.26652682 14.5040327,8.28884513 14.5079095,8.3117391 C14.6040853,8.52884175 14.5780634,8.74416527 14.4290365,8.84452562 C14.4291156,8.86629037 14.426467,8.88824424 14.4213527,8.90964088 C14.602557,8.92416066 14.707242,9.0296236 14.7077891,9.154736 C14.7183567,9.1536228 14.7282604,9.1533934 14.7379519,9.153892 C15.0398306,9.0935163 15.1684087,9.0016871 15.1852842,8.84916417 C14.9866487,8.83777601 14.8725683,8.73488051 14.6820186,8.44660345 Z M13.785832,7.58187138 C13.7927114,7.58773397 13.7998077,7.5931021 13.807105,7.59798835 L13.8085762,7.5950458 C13.8062188,7.59386709 13.8041953,7.59086117 13.8025652,7.58622206 C13.7970827,7.58459734 13.7915036,7.58314539 13.785832,7.58187138 Z M13.9301466,7.67601627 C13.9323706,7.66304786 13.9350502,7.65000769 13.9381602,7.63695162 C13.9211351,7.63673175 13.9045233,7.63501915 13.8884351,7.63172802 C13.9040519,7.6446213 13.9180227,7.65947201 13.9301466,7.67601627 Z M14.2561673,8.96270872 C14.261916,8.9596775 14.2673587,8.95673236 14.2726361,8.95379577 C14.2672528,8.95678942 14.2617738,8.95975929 14.2561673,8.96270872 Z M14.3416619,8.90903499 C14.3590251,8.89558811 14.3730689,8.88239163 14.3841627,8.86949891 C14.3675505,8.88508914 14.3533751,8.89782505 14.3392112,8.90918615 C14.3400293,8.90913411 14.3408462,8.90908373 14.3416619,8.90903499 Z M13.9674288,7.99660345 C13.9790845,7.97329201 13.9814349,7.95957818 13.986958,7.95597018 C13.98425,7.95309562 13.9816341,7.95014627 13.9791091,7.94712499 L13.9674288,7.99660345 Z M13.0497237,8.8502509 C12.9934582,8.8502509 12.9578974,8.87053027 12.9364349,8.89717667 L13.0497237,8.8502509 Z M12.8351436,8.72889835 C12.8713495,8.65648651 12.8741581,8.65345226 12.982832,8.60897515 C12.9802498,8.59525606 12.9788904,8.58076426 12.9788904,8.56552868 C12.9788904,8.51885162 12.9938965,8.47383323 13.0074953,8.44413748 C13.0115079,8.4334371 13.0122237,8.43065364 13.0122237,8.4377509 C13.0122237,8.40186579 13.0190056,8.36117434 13.0413936,8.31639835 C13.0837941,8.23159732 13.1681419,8.17532716 13.2745074,8.17525098 C13.3260775,8.10685482 13.4225661,8.07704071 13.5085762,8.1200458 C13.7387472,8.2351313 13.8372237,8.38284598 13.8276018,8.60345819 C13.9244721,8.89406916 13.8653738,9.0122658 13.5573062,9.3203334 L13.4840164,9.365629 C13.428981,9.3839742 13.3752774,9.4094127 13.3239694,9.4401975 C13.2552069,9.481455 13.2055844,9.5220552 13.1823062,9.5453334 L13.0497237,9.6002509 C12.7791229,9.6002509 12.7502655,9.1814442 12.868623,8.97068462 C12.7857056,8.88222414 12.7780722,8.84304111 12.8351436,8.72889835 Z M13.4371414,8.53125402 C13.4274027,8.53450025 13.4182996,8.5372015 13.4093801,8.53944713 C13.4278053,8.60231659 13.4160373,8.67630085 13.3744831,8.73863219 C13.35309,8.77072185 13.3326897,8.79408459 13.258754,8.8607592 C13.2877207,8.91832557 13.3011028,8.97986453 13.2959036,9.0356752 C13.3045033,9.0321557 13.3131528,9.0287388 13.3218518,9.0254274 C13.5090483,8.83766864 13.5076875,8.82811151 13.4622237,8.6627509 C13.4622237,8.59655197 13.4587282,8.55816008 13.4418712,8.52963191 C13.4403027,8.53018508 13.438726,8.53072582 13.4371414,8.53125402 Z M13.3408711,8.455456 C13.3533528,8.46169683 13.3645726,8.46749638 13.3746552,8.47308142 C13.3663247,8.46291306 13.3567847,8.45353688 13.3460322,8.44513398 L13.3408711,8.455456 Z M13.3803761,8.47629809 C13.3818564,8.47714367 13.3833106,8.47798522 13.384739,8.47882358 C13.3858728,8.46980051 13.3866227,8.46059181 13.3869802,8.45101565 C13.3858174,8.45971925 13.3839686,8.46758803 13.3803761,8.47629809 C13.3818564,8.47714367 13.3833106,8.47798522 13.384739,8.47882358 L13.3803761,8.47629809 Z M13.3746552,8.47308142 C13.3762295,8.47500311 13.3777607,8.47695309 13.3792487,8.47893014 C13.3796423,8.47804342 13.3800179,8.47716658 13.3803761,8.47629809 C13.378511,8.47523279 13.3766043,8.47416111 13.3746552,8.47308142 Z M2.51222369,11.3627509 C2.51222369,11.3060799 2.49015153,11.2691796 2.46457567,11.2477184 L2.51222369,11.3627509 Z M1.34967731,9.5226046 C1.44327451,9.6170249 1.46222369,9.6460008 1.46222369,9.7408759 C1.46222369,9.7910441 1.45278693,9.8311273 1.43505441,9.8629354 C1.49659912,9.9319934 1.54935291,9.9784747 1.63230621,10.0301684 C1.74480621,10.1426684 1.74480621,10.1426684 1.81742879,10.2288984 C1.83091738,10.2558755 1.85529117,10.2997484 1.8835109,10.3420779 C1.90224325,10.3701765 1.91949456,10.3923567 1.93230621,10.4051684 C2.01232804,10.4851902 2.04244943,10.5002509 2.02472369,10.5002509 C2.11698103,10.5002509 2.24031175,10.5194045 2.36954117,10.5766524 C2.43856883,10.5810052 2.50618666,10.5954874 2.5918589,10.6199652 C2.69498934,10.649431 2.69813229,10.6502509 2.69972369,10.6502509 C2.94526098,10.6502509 3.04007687,10.8198125 2.99788566,10.9485417 C3.19961243,10.9316286 3.34217325,11.0716592 3.40260181,11.3784582 C3.51349816,11.7111473 3.45612772,11.8832586 3.07472369,12.0002509 C3.02555695,12.0002509 2.94446821,12.0581714 2.83230621,12.1703334 C2.75163114,12.2510085 2.66019973,12.2850295 2.33298979,12.3857095 C2.24301383,12.4133944 2.20402433,12.4256264 2.1590164,12.440629 C2.09407203,12.4622771 2.03882144,12.4792773 1.91193475,12.5173433 C1.84963837,12.5360327 1.84963837,12.5360327 1.78923979,12.5544595 C1.65090995,12.5970225 1.56275601,12.6283661 1.50857624,12.655456 C1.47479086,12.6723487 1.43114291,12.7052549 1.38193147,12.7497881 C1.63380838,12.6300283 1.8661754,12.6255306 1.96219747,12.8388389 C2.10910734,13.0267719 1.9670982,13.2492779 1.81080397,13.2649994 C1.75997608,13.2305858 1.7988926,13.2279075 1.90372998,13.3067415 C2.04290034,13.3995217 2.04407227,13.4033787 2.04241955,13.4049184 C2.18856404,13.2587403 2.14895046,13.2940009 2.24034869,13.2940009 C2.37549072,13.2940009 2.42283708,13.3781722 2.43460392,13.4723069 C2.44281179,13.4745284 2.45342763,13.4566746 2.46871426,13.4337446 C2.6812703,13.1149106 2.93505629,13.0641534 3.09242879,13.3788984 L3.11222369,13.4627509 C3.11222369,13.6049855 3.05895436,13.6871862 2.94702709,13.7147416 C2.90650427,13.8562719 2.78832743,14.0030804 2.63357624,14.080456 C2.47189802,14.1612951 2.30938247,14.2876961 2.26742879,14.3716034 C2.13339288,14.6396753 1.76222369,14.7633983 1.76222369,14.3627509 C1.76222369,14.3163302 1.77372281,14.263787 1.79387285,14.2087232 C1.63227781,14.4000561 1.41655134,14.5502509 1.27472369,14.5502509 C1.32958517,14.5502509 1.27366476,14.6341315 1.22760181,14.7220436 C1.18989889,14.8351524 1.19120323,14.8390654 1.25730621,14.9051684 C1.53591559,15.1837778 1.36045176,15.4908395 0.899723693,15.6002509 C0.833228428,15.6002509 0.584191733,16.123228 0.637223693,16.3127509 C0.637270987,16.3649681 0.637039678,16.3871738 0.635686676,16.4088218 C0.626259022,16.5596643 0.611328414,16.6127509 0.440348693,16.6127509 C0.328663048,16.6127509 0.312882436,16.5925517 0.254662654,16.4890499 C0.243515805,16.4692333 0.233021227,16.4486725 0.242141171,16.4453334 C0.206994595,16.4101868 0.180145566,16.3732688 0.158346828,16.3381495 C0.0916874273,16.312905 0.0428434369,16.250695 0.037668006,16.1756513 C-0.118248788,13.9148578 0.209956186,11.6497626 1.02061822,9.5808888 C1.02624384,9.5626558 1.03451184,9.5459664 1.04485498,9.5310556 C1.06245532,9.5043457 1.08508169,9.4845536 1.11030474,9.4712192 C1.13421432,9.4597977 1.16246185,9.451636 1.1913346,9.4501294 C1.22324446,9.4491273 1.25537187,9.455922 1.2841161,9.4698315 C1.30113303,9.478551 1.31738832,9.4902505 1.33230621,9.5051684 C1.33836446,9.5112266 1.344151,9.5170297 1.34967731,9.5226046 C1.37284388,9.5526017 1.38722369,9.5913369 1.38722369,9.6377509 C1.38722369,9.6669176 1.38722369,9.6669176 1.01222369,9.6710842 L1.01222369,9.6377509 C1.01222369,9.6175012 1.01519158,9.5984768 1.02061822,9.5808888 C1.02163698,9.5782889 1.13132334,9.5588608 1.34967731,9.5226046 Z M1.06714117,9.7703334 C1.0707263,9.7739185 1.08515606,9.7918973 1.08702409,9.7504505 L1.06714117,9.7703334 Z M0.854248263,15.2308492 C1.02649563,15.1877873 1.02034998,15.1985422 0.992141171,15.1703334 C0.833244151,15.0114364 0.784548495,14.8653494 0.882018594,14.5788984 C1.05078262,14.2413703 1.09486222,14.1752509 1.27472369,14.1752509 C1.28812825,14.1752509 1.46725973,14.0359264 1.59214117,13.8551684 C1.65909017,13.7882194 1.72889755,13.7297922 1.79887912,13.6822289 C1.76364805,13.6621802 1.72652124,13.6389968 1.68722369,13.6127509 C1.48151636,13.4584704 1.37109189,13.3113681 1.38050771,13.1848889 C1.28114676,13.2548811 1.18852577,13.3400238 1.13073312,13.4167572 C0.900322658,13.7623729 0.752465978,13.8806582 0.590871143,13.705456 C0.510760484,13.6654007 0.46649991,13.6132668 0.452121321,13.5485411 C0.446436128,13.522949 0.445422553,13.4953884 0.448711685,13.4658276 C0.458191943,13.4893565 0.455112831,13.518942 0.452120749,13.5485412 C0.380263132,14.2593947 0.358600951,14.9781747 0.387220534,15.6980512 C0.507883262,15.4425715 0.689783849,15.227941 0.854248263,15.2308492 Z M1.12472369,9.6002509 C1.12711037,9.6002509 1.11286183,9.6055675 1.10124606,9.6377509 L1.38722369,9.6377509 L1.38722369,9.6544176 C1.38722369,9.6627552 1.38722369,9.6655316 1.2759388,9.6676925 L1.3742396,9.7063107 C1.31462624,9.8580538 1.25767627,10.0108954 1.20339077,10.1647517 C1.18366273,10.14427 1.16360048,10.1222747 1.14299056,10.0987205 C1.11571945,10.0675535 1.00696704,9.9351593 0.992141171,9.9203334 C0.87402276,9.802215 0.957679033,9.6002509 1.12472369,9.6002509 Z M2.80372998,11.4437603 C2.50810616,11.6408429 2.17957635,11.6971244 2.14098574,11.4202885 C2.08237194,11.2814472 2.17058649,11.0979227 2.32454337,10.9502083 L2.24087114,10.930456 C2.15908463,10.8895627 2.07321358,10.8752509 2.02472369,10.8752509 C1.93199796,10.8752509 1.81211934,10.8153116 1.66714117,10.6703334 C1.6341195,10.6373117 1.60275969,10.596992 1.57149204,10.5500905 C1.5330451,10.4924201 1.50186334,10.4362929 1.51714117,10.4453334 C1.48191237,10.4101046 1.47977873,10.407971 1.38637725,10.3145695 C1.32425592,10.2786794 1.26547846,10.2292113 1.20339077,10.1647517 C0.839408128,11.1963531 0.595210516,12.273569 0.471117523,13.3711147 C0.512333073,13.2509847 0.603854448,13.1048695 0.728811004,12.9313188 C0.92897127,12.6533184 1.1662544,12.4073542 1.34087114,12.3200458 C1.41938369,12.2807895 1.52130529,12.2445507 1.6789576,12.1960423 C1.74147568,12.1769691 1.74147568,12.1769691 1.8041793,12.1581585 C1.92729262,12.1212245 1.98037535,12.1048913 2.04043099,12.0848728 C2.08917306,12.0686254 2.12987106,12.0558574 2.2227076,12.0272923 C2.44393515,11.9592223 2.55406624,11.9182433 2.56714117,11.9051684 C2.75497918,11.7173304 2.88389044,11.6252509 3.01543099,11.6348728 C3.11519466,11.6016182 3.09844922,11.6518545 3.04086482,11.4745227 C2.99963873,11.2683923 3.02925887,11.2749745 2.80372998,11.4437603 Z M0.411779379,16.1498505 C0.409355154,16.1146992 0.407050806,16.0795472 0.404866327,16.0443951 C0.371451067,16.0129079 0.332127054,15.9909569 0.284512248,15.9811049 C0.268796482,16.0430371 0.258081426,16.1037041 0.253405972,16.1607728 L0.266371589,16.1598786 C0.266673554,16.1186542 0.272693749,16.1317939 0.293259506,16.1580243 L0.411779379,16.1498505 Z M1.2759388,9.6676925 C1.24775755,9.6682398 1.21243982,9.6687476 1.1681784,9.6692962 L1.19972369,9.6377509 L1.2759388,9.6676925 C1.24775755,9.6682398 1.21243982,9.6687476 1.1681784,9.6692962 L1.2759388,9.6676925 Z M1.08722369,9.7408759 C1.08722369,9.7117622 1.08943204,9.6885962 1.09278069,9.6701833 C1.12042801,9.6698697 1.14547933,9.6695776 1.1681784,9.6692962 L1.08702409,9.7504505 C1.0871545,9.747557 1.08722369,9.7443738 1.08722369,9.7408759 Z M7.51714117,24.8453334 C7.55186819,24.8800604 7.57927766,24.9036975 7.60140085,24.918774 C7.6103714,24.9092627 7.61920754,24.9000781 7.62791507,24.8912175 L7.51714117,24.8453334 Z M8.21127835,24.981933 C8.40893909,24.6690006 8.67196722,24.6729987 9.13230621,24.9551684 C9.29116122,25.1140234 9.3615742,25.1248562 9.78795192,25.053892 C10.1672243,24.9780375 10.4827656,25.0306278 10.5835762,25.1450458 C10.6300225,25.1682689 10.6706,25.1809494 10.7701991,25.2058492 C10.8956,25.2371994 10.9550225,25.2557689 11.0193594,25.2886615 C11.5375441,25.4959354 11.6670528,26.0916756 11.3424288,26.8216034 C11.3660071,26.7744467 11.132783,27.2879547 11.0323226,27.4379147 C11.0338579,27.4579121 11.0368901,27.4845903 11.0415892,27.5174844 C11.0522774,27.5923015 11.1216858,27.9790053 11.1300094,28.0362407 C11.2792477,28.5585746 11.2947125,28.8833359 11.2122237,29.3627509 L11.2122237,29.4377509 C11.2122237,29.5610622 11.0952364,29.6507999 10.9761371,29.6188464 C7.77357999,28.7596238 4.99708577,26.8101704 3.05701859,23.9716034 C3.03018119,23.9179286 3.00841269,23.8825548 2.95621426,23.8042572 C2.89591269,23.7138048 2.86768119,23.6679286 2.83201859,23.5966034 L2.81222369,23.5127509 L2.81222369,23.4377509 C2.7014125,23.2557424 2.73411483,23.0252509 2.99972369,23.0252509 C2.96691119,23.0252509 2.96222369,23.0315009 2.96222369,22.9877509 L2.96222369,22.9127509 L3.33722369,22.9127509 C3.33722369,22.8615464 3.37530981,22.8879951 3.44683908,22.917799 C3.42314951,22.9079283 3.54125077,22.9557945 3.59301495,22.9783901 C3.61484511,22.970731 3.63906024,22.9690009 3.67472369,22.9690009 C3.76816926,22.9690009 3.78301663,22.9808788 3.88230621,23.0801684 C3.86181912,23.0596813 3.99728501,23.0325881 4.17071741,22.9817415 C4.46633205,22.784665 4.79485064,22.7283809 4.83345805,23.0051875 C4.8450869,23.0220351 4.86161035,23.0428059 4.88230621,23.0635017 C4.90629315,23.0874886 4.93195559,23.1067355 4.95857624,23.1200458 C5.144663,23.2130892 5.26226247,23.2740667 5.40049688,23.3523995 C5.49459067,23.4057193 5.57934436,23.4571511 5.63357624,23.4950458 C5.96526597,23.6608907 6.03242722,23.6792074 6.17321348,23.6324652 C6.76721929,23.4627492 7.53722369,23.8644906 7.53722369,24.3377509 C7.53722369,24.3198738 7.56621518,24.3488653 7.70730621,24.4301684 C7.77471379,24.497576 7.79888792,24.5234768 7.82448312,24.5618696 C7.85633486,24.6096472 7.87068603,24.6642713 7.8673534,24.7154885 C8.06153725,24.6428464 8.19869145,24.7790619 8.21127835,24.981933 Z M4.48107714,23.1426154 L4.46222369,23.0627509 C4.46222369,23.095816 4.46973754,23.1221507 4.48107714,23.1426154 Z M3.13230621,23.2301684 L3.13992692,23.2485664 C3.13825652,23.2399078 3.13553843,23.2334006 3.13230621,23.2301684 Z M2.96222369,22.9127509 C2.96222369,22.6627509 3.33722369,22.6627509 3.33722369,22.9127509 L3.33722369,22.9877509 C3.33722369,23.0876068 3.31187688,23.1781397 3.26684447,23.2487821 C3.05926225,23.1589679 2.96222369,23.0826076 2.96222369,22.9127509 Z M4.3340164,23.315629 C3.92930232,23.4505337 3.79323022,23.4839067 3.6662991,23.3886239 C3.58756962,23.4187971 3.49740047,23.3901373 3.44846105,23.3244608 C3.42236363,23.3123492 3.287395,23.2576139 3.30260831,23.2639528 C3.29034165,23.2588417 3.27842115,23.253791 3.26684447,23.2487821 C3.24287856,23.2863775 3.21333713,23.3183393 3.17907349,23.3430746 L3.18722369,23.3627509 L3.18722369,23.4377509 C3.18722369,23.4510918 3.18722369,23.4581046 3.18722369,23.4667938 C3.20709855,23.5030154 3.22912536,23.537583 3.26823312,23.5962446 C3.32853469,23.686697 3.3567662,23.7325732 3.3794688,23.7818727 C5.21281493,26.4613785 7.83362161,28.3333439 10.8602449,29.197656 C10.91193,28.8184082 10.8889483,28.5571022 10.7647748,28.1185757 C10.7527616,28.0464965 10.68217,27.6532003 10.6703582,27.5705174 C10.6345567,27.3199073 10.6332954,27.1975838 10.7668315,27.1617712 C10.8298272,27.0386793 10.9847979,26.6984104 11.003384,26.6615999 C11.2473581,26.1126584 11.1690462,25.7524236 10.8658711,25.630456 C10.8194249,25.6072329 10.7788474,25.5945524 10.6792483,25.5696526 C10.5538474,25.5383024 10.4944249,25.5197329 10.3671412,25.4453334 C10.3216818,25.399874 10.1299503,25.3679188 9.8555485,25.4226998 C9.31587319,25.5126456 9.13101343,25.4842057 8.90325574,25.2485308 C8.60113249,25.0672569 8.58119587,25.0690693 8.49242879,25.2466034 C8.37962821,25.4722046 8.17190753,25.6502509 7.94972369,25.6502509 C7.7587504,25.6502509 7.631047,25.6011683 7.56832733,25.5275124 C7.46973956,25.6238615 7.34718928,25.7252509 7.27472369,25.7252509 L7.14214117,25.6703334 C7.01539943,25.5435917 7.07421644,25.3457526 7.23527998,24.9914128 C7.28727274,24.8770288 7.34286587,24.7718707 7.39210598,24.6967147 C7.24916794,24.5886753 7.16222369,24.4800506 7.16222369,24.3377509 C7.16222369,24.1490546 6.65549732,23.8846757 6.2840164,23.990629 C6.02327016,24.0775444 5.88418142,24.0396111 5.44571741,23.8187603 C5.37962683,23.7746999 5.30237445,23.7278203 5.21561717,23.6786578 C5.08462081,23.6044266 4.97145106,23.545746 4.79087114,23.455456 C4.72582513,23.422933 4.66815424,23.3796798 4.61714117,23.3286668 C4.57840724,23.2899328 4.54727499,23.2512674 4.52311311,23.2158565 C4.48074288,23.2322793 4.42054996,23.2632889 4.3340164,23.315629 Z" id="Shape"></path>
                                </g>
                            </g>
                        </g>
                    </g>
                </g>
            </g>
        </g>
    </g>
</svg>