<?xml version="1.0" encoding="UTF-8"?>
<svg width="36px" height="36px" viewBox="0 0 36 36" version="1.1" xmlns="http://www.w3.org/2000/svg" xmlns:xlink="http://www.w3.org/1999/xlink">
    <!-- Generator: sketchtool 46.2 (44496) - http://www.bohemiancoding.com/sketch -->
    <title>716F0F40-F5B1-49C2-A27A-572FB97A360F</title>
    <desc>Created with sketchtool.</desc>
    <defs></defs>
    <g id="Testi" stroke="none" stroke-width="1" fill="none" fill-rule="evenodd">
        <g id="testi-vinkit-mockup" transform="translate(-944.000000, -443.000000)">
            <g id="vinkit">
                <g id="gridi" transform="translate(74.000000, 415.000000)">
                    <g id="vaikutukset" transform="translate(32.000000, 28.000000)">
                        <g id="vaikutus2-kortti" transform="translate(838.000000, 0.000000)">
                            <g id="vaikutus2">
                                <circle id="Oval" fill="#FFFFFF" cx="18" cy="18" r="18"></circle>
                                <circle id="Oval" fill="#75CFEB" cx="18" cy="18" r="10.5"></circle>
                                <g id="globe" transform="translate(2.000000, 2.000000)" fill-rule="nonzero" fill="#000000">
                                    <path d="M3.562,7.863 C3.572,7.887 3.578,7.897 3.554,7.863 L3.562,7.863 Z M9.165,2.51 L8.94,2.585 C8.775,2.575 8.775,2.575 8.625,2.575 L8.625,2.763 L8.757,2.63 C8.805,2.678 8.777,2.73 8.813,2.71 C8.896,2.66 9.035,2.61 9.186,2.572 L9.166,2.51 L9.165,2.51 Z M3.242,8.37 C3.1,8.228 3.094,8.044 3.225,7.9 C3.225,7.942 3.245,8.05 3.375,8.05 L3.375,7.863 L3.555,7.863 C3.537,7.839 3.505,7.793 3.451,7.713 C3.236,7.785 3.186,7.803 3.186,7.816 C3.201,7.806 3.203,7.8 3.206,7.792 C3.071,7.838 2.93,7.799 2.896,7.64 C2.779,7.478 2.871,7.33 3.046,7.223 C3.02,7.2 3,7.173 2.983,7.14 C2.917,7.008 2.971,6.877 3.058,6.804 C3.104,6.711 3.113,6.694 3.113,6.69 L3.113,6.663 L3.145,6.559 C4.53,4.476 6.44,2.744 8.614,1.62 C8.694,1.58 8.784,1.602 8.837,1.66 C8.977,1.802 9.037,1.902 9.037,2.088 C9.037,2.048 9.12,2.078 9.092,2.105 L9.225,2.05 C9.303,2.05 9.331,2.053 9.385,2.08 C9.427,2.1 9.441,2.114 9.507,2.18 C9.633,2.305 9.633,2.507 9.42,2.56 C9.365,2.574 9.326,2.575 9.195,2.57 C9.193,2.57 9.212,2.638 9.253,2.772 C9.333,2.79 9.385,2.85 9.403,2.924 C9.436,2.944 9.463,2.964 9.459,2.97 C9.519,3 9.537,3.01 9.561,3.026 C9.651,3.086 9.708,3.171 9.645,3.296 C9.601,3.384 9.63,3.376 9.375,3.46 C9.579,3.606 9.655,3.887 9.363,3.922 C9.213,4.004 8.998,3.947 8.753,3.824 C8.616,3.742 8.493,3.707 8.42,3.714 C8.422,3.704 8.432,3.704 8.437,3.738 C8.437,3.948 8.381,4.033 8.214,4.063 C8.231,4.078 8.246,4.095 8.259,4.113 C8.289,4.153 8.309,4.2 8.315,4.243 C8.641,4.051 9.213,4.237 9.335,4.638 C9.335,4.822 9.235,4.978 9.078,5.024 C8.9,5.074 8.734,4.964 8.68,4.797 C8.66,4.757 8.708,4.767 8.632,4.805 L8.574,4.837 L8.584,4.863 C8.584,4.957 8.577,5.029 8.537,5.128 C8.859,5.125 8.924,5.708 8.631,5.855 C8.496,5.923 8.413,5.963 8.301,6.01 C8.141,6.08 7.989,6.133 7.828,6.173 C7.485,6.23 7.358,6.277 7.306,6.347 C7.282,6.509 7.16,6.632 7.022,6.679 C7.085,6.963 6.97,7.239 6.73,7.394 C6.623,7.502 6.428,7.599 6.298,7.599 L6.214,7.579 C6.284,7.615 6.274,7.622 6.251,7.644 C6.187,7.708 6.107,7.808 6.031,7.92 C5.911,8.1 5.811,8.313 5.761,8.262 C5.904,8.408 5.901,8.599 5.755,8.745 L5.623,8.613 L5.81,8.613 L5.81,8.838 C5.81,8.84 5.818,8.868 5.838,8.928 C5.874,9.038 5.885,9.078 5.885,9.138 C5.885,9.268 5.785,9.438 5.645,9.606 C5.437,9.85 5.285,9.964 5.115,9.796 L5.06,9.663 C5.06,9.688 5.07,9.708 5.075,9.717 C5.045,9.687 5.023,9.659 5.007,9.627 C4.99,9.625 4.971,9.625 4.947,9.625 C4.657,9.625 4.317,9.445 3.839,9.045 C3.686,8.892 3.579,8.755 3.526,8.635 C3.509,8.638 3.494,8.632 3.456,8.632 C3.32,8.632 3.273,8.547 3.261,8.452 C3.258,8.416 3.258,8.415 3.258,8.392 C3.262,8.387 3.283,8.425 3.371,8.425 L3.238,8.37 L3.242,8.37 Z M9.167,3.605 L9.3,3.55 C9.232,3.55 9.19,3.57 9.167,3.596 C9.17,3.599 9.17,3.602 9.167,3.606 L9.167,3.605 Z M8.567,1.92 L8.585,1.903 L8.533,1.821 L8.526,1.821 L8.566,1.921 L8.567,1.92 Z M6.497,7.107 C6.647,7.007 6.697,6.87 6.637,6.663 C6.637,6.583 6.639,6.551 6.657,6.5 C6.691,6.395 6.781,6.325 6.9,6.325 C6.907,6.325 6.937,6.301 6.937,6.288 L6.957,6.204 C7.07,5.979 7.277,5.884 7.754,5.806 C7.879,5.776 8.014,5.726 8.157,5.666 C8.257,5.623 8.333,5.586 8.454,5.526 C8.357,5.536 8.27,5.526 8.2,5.483 C8.02,5.375 8.047,5.175 8.157,5.079 C8.194,5.005 8.207,4.967 8.21,4.917 C8.173,4.841 8.174,4.757 8.213,4.68 C8.166,4.685 8.12,4.68 8.078,4.666 C7.928,4.616 7.868,4.478 7.922,4.308 L7.904,4.295 C7.666,4.235 7.507,4.105 7.588,3.902 C7.646,3.757 7.813,3.7 8.025,3.7 C8.097,3.7 8.102,3.72 8.093,3.74 C8.017,3.547 8.141,3.38 8.35,3.347 C8.495,3.322 8.672,3.36 8.844,3.447 C8.847,3.424 8.852,3.402 8.859,3.377 C8.889,3.29 8.959,3.224 9.055,3.175 C8.789,3.17 8.631,3.065 8.598,2.939 L8.49,2.894 C8.304,2.708 8.407,2.51 8.622,2.384 C8.662,2.36 8.712,2.337 8.764,2.314 C8.701,2.254 8.66,2.177 8.66,2.087 C8.66,2.064 8.658,2.047 8.65,2.024 C6.605,3.111 4.805,4.754 3.484,6.721 C3.484,6.731 3.482,6.741 3.48,6.751 C3.472,6.801 3.463,6.823 3.394,6.951 C3.484,6.996 3.504,7.007 3.539,7.051 C3.619,7.146 3.604,7.246 3.542,7.325 C3.66,7.423 3.684,7.6 3.627,7.771 L3.607,7.804 C3.641,7.894 3.613,8.014 3.539,8.107 C3.549,8.115 3.557,8.123 3.565,8.132 C3.639,8.102 3.715,8.107 3.787,8.156 C3.903,8.233 3.914,8.356 3.867,8.484 C3.89,8.531 3.967,8.639 4.094,8.768 C4.498,9.104 4.771,9.248 4.949,9.248 C5.189,9.248 5.304,9.263 5.344,9.378 L5.359,9.362 C5.443,9.262 5.511,9.145 5.511,9.136 C5.511,9.134 5.503,9.106 5.483,9.046 C5.447,8.936 5.436,8.896 5.436,8.836 L5.436,8.611 L5.491,8.478 C5.493,8.476 5.493,8.52 5.456,8.47 C5.319,8.195 5.941,7.242 6.299,7.226 C6.319,7.223 6.424,7.171 6.495,7.106 L6.497,7.107 Z M9.213,3.147 C9.247,3.135 9.227,3.142 9.203,3.142 C9.185,3.142 9.169,3.139 9.153,3.135 L9.096,3.157 L9.112,3.173 C9.145,3.17 9.176,3.161 9.212,3.147 L9.213,3.147 Z M9.225,2.419 L9.215,2.414 C9.205,2.409 9.213,2.416 9.237,2.439 C9.232,2.433 9.227,2.426 9.225,2.419 L9.215,2.414 L9.225,2.418 L9.225,2.419 Z M5.437,9.662 C5.437,9.577 5.411,9.525 5.361,9.472 C5.361,9.435 5.355,9.405 5.346,9.38 C5.308,9.424 5.271,9.46 5.244,9.48 C5.27,9.466 5.306,9.462 5.364,9.51 C5.364,9.498 5.364,9.485 5.362,9.472 L5.347,9.456 C5.353,9.463 5.364,9.484 5.364,9.511 L5.439,9.664 L5.437,9.662 Z M9.241,2.252 L9.226,2.237 L9.226,2.284 C9.23,2.274 9.236,2.264 9.242,2.254 L9.241,2.252 Z M5.363,9.512 C5.363,9.486 5.353,9.465 5.347,9.459 L5.362,9.474 C5.364,9.487 5.364,9.5 5.364,9.514 C5.307,9.464 5.271,9.468 5.249,9.48 C5.272,9.462 5.309,9.426 5.347,9.383 C5.357,9.409 5.361,9.439 5.363,9.475 C5.413,9.529 5.44,9.581 5.44,9.665 L5.25,9.665 L5.382,9.533 L5.362,9.513 L5.363,9.512 Z M9.226,2.287 C9.206,2.333 9.209,2.387 9.226,2.421 L9.226,2.286 L9.226,2.287 Z M19.183,2.332 L19.179,2.33 L19.183,2.332 Z M17.008,4.199 L17.176,4.115 L16.988,4.115 L16.988,4.155 L17.008,4.199 Z M17.158,8.522 C17.168,8.512 17.176,8.498 17.18,8.482 L17.157,8.522 L17.158,8.522 Z M19.366,11.792 C19.149,11.72 18.826,11.504 18.693,11.372 L18.675,11.365 C18.648,11.355 18.615,11.352 18.601,11.352 C18.548,11.352 18.487,11.338 18.425,11.304 C18.395,11.328 18.389,11.288 18.433,11.332 L18.808,11.707 C18.958,11.857 19.158,11.973 19.351,12.027 C19.501,12.027 19.648,12.049 19.761,12.095 C19.719,11.985 19.651,11.935 19.366,11.793 L19.366,11.792 Z M23.246,9.936 C23.266,9.902 23.282,9.869 23.291,9.836 C23.203,9.889 23.081,9.968 22.996,10.032 C23.079,10.065 23.146,10.116 23.186,10.175 C23.178,10.105 23.198,10.028 23.246,9.935 L23.246,9.936 Z M27.168,13.696 C27.025,13.554 26.841,13.54 26.793,13.574 C26.775,13.611 26.773,13.619 26.773,13.606 C26.773,13.586 26.813,13.636 26.983,13.806 L27.107,13.932 L27.15,13.977 C27.34,14.177 27.412,14.27 27.412,14.39 C27.412,14.387 27.436,14.427 27.375,14.427 C27.522,14.427 27.657,14.537 27.699,14.675 C27.836,14.575 28.059,14.363 28.096,14.255 L28.133,14.145 C27.803,14.13 27.431,13.962 27.166,13.697 L27.168,13.696 Z M21.85,3.77 L21.817,3.75 L21.85,3.77 Z M23.185,10.173 C23.205,10.205 23.218,10.239 23.219,10.273 C23.199,10.243 23.189,10.209 23.184,10.173 L23.185,10.173 Z M26.147,17.297 C26.097,17.149 26.025,17.055 25.83,16.857 C25.405,16.572 25.198,16.327 25.093,16.007 C25.041,15.8 24.883,15.625 24.825,15.625 C24.645,15.625 24.487,15.465 24.487,15.288 C24.487,15.156 24.26,14.848 23.977,14.623 C23.973,14.633 23.969,14.639 23.964,14.647 C23.938,14.689 23.91,14.722 23.871,14.742 L24.038,14.912 L24.058,14.93 C24.114,14.986 24.172,15.048 24.233,15.117 C24.323,15.217 24.563,15.511 24.583,15.53 L24.638,15.663 C24.638,15.693 24.668,15.751 24.726,15.819 L24.808,15.904 C24.903,15.999 24.95,16.118 25.083,16.516 C25.133,16.722 25.165,16.776 25.255,16.828 C25.422,16.852 25.613,16.984 25.613,17.161 C25.613,17.143 25.643,17.171 25.735,17.218 C25.877,17.288 26.015,17.411 26.295,17.695 C26.25,17.588 26.202,17.457 26.148,17.295 L26.147,17.297 Z M21.582,3.493 C21.622,3.533 21.654,3.579 21.682,3.633 C21.71,3.678 21.76,3.718 21.817,3.751 C21.792,3.701 21.78,3.611 21.879,3.514 C21.779,3.517 21.679,3.511 21.581,3.494 L21.582,3.493 Z M22.035,11.443 C22.075,11.41 22.129,11.383 22.228,11.333 C22.318,11.288 22.358,11.266 22.368,11.255 C22.631,10.991 22.816,10.963 23.356,11.053 C23.761,11.12 24.126,11.047 24.219,10.909 C24.287,10.804 24.255,10.764 23.789,10.589 C23.481,10.487 23.293,10.395 23.219,10.273 C23.221,10.341 23.184,10.413 23.089,10.473 C22.977,10.55 22.789,10.565 22.649,10.523 C22.531,10.523 22.427,10.493 22.357,10.423 C22.3,10.365 22.277,10.295 22.283,10.225 C22.191,10.225 22.173,10.232 22.149,10.25 C22.126,10.27 22.096,10.305 22.049,10.375 C21.877,10.605 21.711,11.225 21.723,11.375 C21.795,11.407 21.848,11.467 21.873,11.543 C21.923,11.498 21.979,11.463 22.033,11.443 L22.035,11.443 Z M22.219,3.461 L22.274,3.476 C22.364,3.476 22.418,3.476 22.452,3.474 C22.442,3.444 22.439,3.411 22.442,3.379 C22.374,3.412 22.298,3.439 22.218,3.462 L22.219,3.461 Z M16.236,13.264 L16.236,13.564 C16.236,13.874 16.031,14.157 15.683,14.331 C15.573,14.386 15.527,14.411 15.476,14.439 C15.416,14.473 15.376,14.501 15.308,14.556 C15.092,14.664 14.933,14.664 14.79,14.521 C14.71,14.503 14.678,14.501 14.682,14.491 C14.297,14.621 13.885,14.167 13.985,13.789 C13.985,13.651 13.979,13.529 13.955,13.399 C13.947,13.342 13.935,13.292 13.92,13.249 C13.86,13.072 13.84,12.999 13.82,12.919 C13.776,12.719 13.786,12.573 13.977,12.553 C14.222,12.443 14.847,12.326 15.147,12.326 C15.317,12.326 15.387,12.224 15.354,12.073 C15.186,11.737 14.934,11.426 14.801,11.421 C14.304,11.296 14.304,10.826 14.847,10.826 C14.904,10.826 14.907,10.836 14.9,10.846 C14.885,10.779 14.888,10.748 14.903,10.701 C14.938,10.596 15.028,10.526 15.147,10.526 L15.231,10.546 C15.231,10.546 15.518,10.282 15.579,10.106 C15.683,9.896 15.804,9.776 15.972,9.776 C15.992,9.776 16.038,9.696 16.027,9.609 C15.924,9.506 15.953,9.531 15.953,9.449 C15.953,9.313 16.037,9.266 16.131,9.254 C16.171,9.251 16.171,9.251 16.197,9.251 C16.187,9.251 16.219,9.226 16.289,9.156 C16.372,9.073 16.465,9.02 16.737,8.886 L16.825,8.856 C16.519,8.241 16.498,7.991 16.788,7.846 C17.154,7.663 17.3,7.952 17.208,8.421 C17.228,8.435 17.261,8.454 17.305,8.481 C17.382,8.558 17.413,8.558 17.49,8.481 C17.705,8.267 17.917,8.251 18.058,8.473 C18.101,8.441 18.163,8.393 18.26,8.313 C18.652,8.02 18.647,8.023 18.795,8.023 C18.859,8.023 18.919,8.04 18.982,8.071 C19.057,8.109 19.027,8.119 19.14,7.956 C19.298,7.798 19.296,7.806 19.255,7.723 C19.045,7.3 19.302,6.858 19.728,7.098 C19.426,6.912 19.426,6.49 19.743,6.335 C20.136,6.213 20.395,6.12 20.54,6.048 C20.386,6.011 20.07,6.104 19.744,6.3 C19.249,6.596 18.978,6.522 18.791,5.958 C18.695,5.576 18.728,5.376 18.959,5.072 C19.229,4.586 19.259,4.514 19.262,4.519 C19.092,4.379 18.812,4.599 18.862,4.862 C18.862,5.02 18.838,5.112 18.702,5.242 C18.347,5.48 18.262,5.63 18.262,5.912 C18.262,6.079 18.282,6.14 18.342,6.212 C18.362,6.234 18.382,6.254 18.432,6.304 C18.432,6.304 18.628,6.464 18.654,6.544 C18.677,6.614 18.668,6.671 18.638,6.724 C18.684,6.799 18.676,6.904 18.598,6.982 C18.544,7.037 18.458,7.074 18.375,7.074 C18.41,7.077 18.38,7.274 18.465,7.404 C18.599,7.67 18.542,7.899 18.223,7.899 C18.193,7.899 18.135,7.929 18.067,7.987 C18.039,8.011 18.017,8.031 18.003,8.041 C17.909,8.181 17.887,8.211 17.813,8.246 C17.601,8.353 17.59,8.34 17.263,7.844 C17.113,7.692 16.947,7.457 16.866,7.291 L16.778,7.394 C16.511,7.662 16.394,7.749 16.196,7.749 C15.843,7.749 15.708,7.669 15.708,7.337 C15.708,7.171 15.698,7.105 15.671,7.074 C15.376,6.681 15.415,6.427 15.838,6.004 C15.858,5.986 15.858,5.979 15.858,5.912 C15.858,5.79 15.872,5.727 15.97,5.662 C16.065,5.599 16.174,5.607 16.33,5.659 C16.4,5.682 16.473,5.619 16.473,5.549 C16.458,5.533 16.443,5.512 16.421,5.483 C16.391,5.443 16.363,5.418 16.337,5.403 C16.265,5.368 16.247,5.357 16.214,5.328 C16.08,5.203 16.132,5.058 16.254,4.962 C16.294,4.932 16.334,4.907 16.439,4.842 C16.382,4.782 16.403,4.79 16.403,4.72 C16.403,4.585 16.487,4.538 16.581,4.526 C16.621,4.523 16.621,4.523 16.647,4.523 C16.635,4.523 16.679,4.488 16.779,4.403 C16.812,4.337 16.855,4.279 16.906,4.228 C16.931,4.202 16.958,4.178 16.983,4.158 C16.893,3.918 17.017,3.698 17.246,3.698 C17.296,3.698 17.301,3.681 17.312,3.678 C17.134,3.59 17.034,3.402 17.227,3.258 C17.31,3.196 17.44,3.173 17.622,3.173 C17.636,3.156 17.667,3.125 17.714,3.078 C17.762,3.031 17.811,2.998 17.86,2.978 C17.852,2.941 17.87,2.898 17.91,2.788 C17.966,2.732 17.992,2.728 18.086,2.725 C18.114,2.723 18.143,2.723 18.221,2.723 C18.329,2.723 18.439,2.698 18.505,2.663 L18.482,2.536 C18.482,2.432 18.566,2.348 18.67,2.348 C18.685,2.348 18.717,2.345 18.744,2.336 C18.856,2.233 18.969,2.199 19.077,2.226 C19.127,2.266 19.217,2.22 19.192,2.214 C19.218,2.198 19.245,2.187 19.278,2.178 C19.3,2.172 19.321,2.168 19.342,2.168 C19.38,2.14 19.432,2.123 19.494,2.123 C19.53,2.123 19.57,2.13 19.614,2.153 C19.64,2.165 19.662,2.181 19.681,2.199 L19.809,2.209 C20.079,2.119 20.259,2.189 20.225,2.353 C20.305,2.313 20.397,2.265 20.499,2.205 C20.862,2.115 21.062,2.115 21.202,2.255 C21.568,2.173 22.832,2.518 22.827,2.791 C22.837,2.828 22.84,2.865 22.839,2.901 C22.984,2.796 23.119,2.751 23.229,2.809 C23.257,2.819 23.289,2.732 23.159,2.559 C22.859,2.057 22.953,1.867 23.469,1.974 C23.877,1.974 24.081,2.242 23.771,2.442 C23.835,2.449 23.881,2.388 23.984,2.215 C24.038,2.125 24.157,2.097 24.246,2.155 C28.379,4.833 31.154,9.327 31.606,14.145 C31.616,14.255 31.529,14.349 31.419,14.349 L31.344,14.349 C31.179,14.349 31.062,14.306 30.79,14.169 C30.62,14.055 30.592,14.055 30.027,14.196 C29.119,14.361 28.717,14.356 28.569,14.066 C28.565,14.066 28.569,14.12 28.586,14.228 C28.633,14.318 28.811,14.444 29.013,14.512 C29.229,14.598 29.281,14.622 29.343,14.666 C29.503,14.783 29.499,14.884 29.43,15.061 L29.43,15.286 L29.243,15.286 L29.243,15.1 C29.469,15.1 29.498,15.286 29.436,15.442 C29.406,15.512 29.356,15.59 29.3,15.645 C29.292,15.685 29.286,15.715 29.277,15.745 C29.267,15.78 29.25,15.817 29.227,15.861 C29.185,15.938 29.122,16.036 29.047,16.138 C28.887,16.364 28.71,16.568 28.562,16.688 C28.455,16.854 28.186,17.084 27.799,17.371 C27.586,17.585 27.099,17.997 27.124,17.971 C27.012,18.084 26.894,18.149 26.784,18.157 C26.824,18.215 26.86,18.239 26.901,18.261 C26.977,18.287 27.001,18.293 27.021,18.295 C27.074,18.301 27.138,18.279 27.513,18.118 C28.229,17.793 28.197,17.808 28.303,17.768 C28.34,17.752 28.37,17.742 28.396,17.736 C28.486,17.716 28.552,17.716 28.619,17.811 C28.691,17.911 28.665,17.978 28.607,18.055 C28.592,18.075 28.574,18.095 28.547,18.121 C28.499,18.171 28.453,18.277 28.453,18.364 C28.453,18.74 28.2,19.894 27.973,20.418 C27.933,20.478 27.9,20.53 27.827,20.652 L27.75,20.779 C27.65,20.939 27.577,21.043 27.507,21.112 C27.107,21.579 26.697,22.832 26.822,22.957 C26.942,23.077 27.027,23.277 27.027,23.465 C27.027,23.495 27.057,23.553 27.115,23.621 L27.197,23.706 C27.377,23.886 27.627,24.67 27.627,24.964 L27.627,25.114 C27.627,25.369 27.432,25.687 27.197,25.921 C26.954,26.165 26.83,26.301 26.771,26.418 C26.677,26.56 26.669,26.626 26.673,26.631 C26.747,26.704 26.747,26.823 26.673,26.896 C25.64,27.93 24.438,28.776 23.025,29.481 C22.932,29.528 22.819,29.491 22.773,29.398 L22.548,28.948 L22.313,28.473 C22.183,28.081 22.065,27.883 21.741,27.476 C21.629,27.326 21.569,27.229 21.531,27.124 C21.485,26.994 21.478,26.91 21.478,26.614 C21.478,26.464 21.478,26.384 21.483,26.288 C21.493,26.086 21.511,25.935 21.553,25.825 C21.553,25.585 21.543,25.511 21.498,25.423 C21.438,25.303 21.414,25.25 21.388,25.18 C21.348,25.077 21.328,24.983 21.328,24.888 C21.328,24.858 21.298,24.8 21.24,24.732 L21.195,24.684 C21.133,24.66 21.083,24.614 21.037,24.55 C21.007,24.512 20.987,24.475 20.972,24.447 L20.952,24.363 C20.952,24.313 20.717,24.056 20.512,23.919 C20.232,23.731 20.144,23.494 19.979,22.585 C19.912,22.062 19.859,22.003 19.696,22.095 C19.466,22.323 19.076,22.388 19.086,22.095 C19.05,21.99 18.804,21.875 18.796,21.869 C18.756,21.909 18.696,21.949 18.596,22.009 C18.558,22.033 18.383,22.135 18.338,22.161 C18.27,22.201 18.215,22.236 18.168,22.268 C17.748,22.5 17.552,22.598 17.388,22.598 C17.292,22.598 17.16,22.634 16.9,22.711 C16.55,22.973 16.408,22.986 15.978,22.814 C15.455,22.639 15.025,22.29 15.025,21.961 C15.025,21.947 14.885,21.768 14.735,21.667 C14.389,21.437 14.265,21.35 14.221,21.257 L14.151,21.213 C14.103,21.183 14.063,21.15 14.079,21.153 C13.822,21.023 13.744,20.841 13.826,20.535 C13.826,20.141 13.799,19.885 13.68,19.522 C13.462,18.428 13.443,18.332 13.64,18.226 C13.694,18.076 13.785,17.873 13.75,17.959 C13.785,17.873 13.813,17.793 13.837,17.699 C13.967,17.305 14.115,17.011 14.257,16.951 C14.363,16.846 14.477,16.478 14.459,16.438 C14.249,16.128 14.277,15.805 14.521,15.575 C14.541,15.535 14.567,15.487 14.616,15.399 L14.662,15.311 C14.705,15.225 14.726,15.163 14.726,15.133 C14.726,14.698 14.96,14.463 15.271,14.775 C15.261,14.765 15.577,14.64 16.076,14.308 C16.563,13.942 16.89,13.768 17.071,13.95 C17.031,13.91 17.154,13.877 17.293,13.823 C17.387,13.787 17.429,13.773 17.493,13.751 C17.441,13.764 18.059,13.595 18.139,13.595 C18.501,13.595 18.732,14.095 18.606,14.467 C18.596,14.49 18.582,14.47 18.673,14.515 C18.749,14.553 18.821,14.567 18.92,14.57 C19.12,14.495 19.48,14.58 19.78,14.732 C20.286,14.922 20.412,14.922 20.433,14.862 C20.463,14.745 20.473,14.7 20.489,14.646 C20.633,14.149 20.779,14.121 21.762,14.273 C22.329,14.343 22.42,14.337 22.555,14.216 C22.832,14.076 22.975,14.042 23.125,14.126 C23.351,14.17 23.425,14.036 23.425,13.334 C23.425,13.021 23.425,12.847 23.417,12.744 C23.257,12.894 23.117,12.921 22.789,12.921 C22.659,12.921 22.605,12.921 22.589,12.896 C22.555,13.016 22.442,13.056 22.296,13.068 C22.262,13.071 22.233,13.071 22.189,13.071 L21.964,13.071 L21.964,12.884 L22.096,13.016 C21.912,13.201 21.639,13.028 21.569,12.829 C21.529,12.789 21.524,12.781 21.496,12.743 L21.332,12.403 C21.31,12.318 21.3,12.24 21.302,12.171 C21.172,12.171 21.104,12.199 21.102,12.138 C21.102,12.236 21.074,12.306 21.008,12.346 C21.408,12.55 21.438,12.776 21.12,13.091 C20.827,13.384 20.534,13.456 20.503,13.101 C20.453,13.016 20.456,12.928 20.493,12.855 C20.326,12.771 20.143,12.621 19.993,12.453 C19.976,12.493 19.943,12.527 19.89,12.553 C19.84,12.579 19.784,12.585 19.73,12.573 L19.75,12.658 C19.75,12.684 19.754,12.708 19.762,12.743 C19.802,12.916 19.802,12.983 19.695,13.09 C19.669,13.117 19.652,13.133 19.635,13.147 C19.555,13.207 19.461,13.234 19.365,13.137 C19.297,13.07 19.3,13.117 19.3,12.883 C19.3,12.781 19.104,12.62 18.963,12.62 C18.729,12.62 18.083,12.267 17.809,11.99 C17.649,11.882 17.599,11.887 17.446,12.04 C17.326,12.16 17.126,12.245 16.939,12.245 C16.746,12.245 16.704,12.295 16.731,12.425 C16.858,12.675 16.737,12.918 16.471,13.09 C16.376,13.185 16.226,13.31 16.226,13.258 L16.236,13.264 Z M14.902,10.847 C14.886,10.851 14.886,10.857 14.886,10.864 C14.886,10.861 14.896,10.854 14.902,10.847 Z M21.599,11.727 C21.573,11.727 21.553,11.714 21.539,11.701 L21.599,11.726 L21.599,11.727 Z M20.886,13.039 L20.873,13.009 C20.883,13.019 20.886,13.032 20.886,13.039 Z M20.774,13.076 C20.784,13.076 20.792,13.074 20.801,13.07 L20.774,13.075 L20.774,13.076 Z M19.406,12.748 L19.574,12.664 L19.386,12.664 C19.386,12.68 19.386,12.694 19.388,12.709 C19.392,12.722 19.398,12.735 19.405,12.749 L19.406,12.748 Z M14.156,12.871 L14.024,12.926 C14.158,12.926 14.187,12.889 14.19,12.858 C14.172,12.864 14.16,12.868 14.157,12.871 L14.156,12.871 Z M28.749,15.921 C28.815,15.829 28.869,15.743 28.902,15.683 C28.912,15.58 28.946,15.476 29.042,15.381 C29.064,15.328 29.062,15.309 29.062,15.289 L29.062,15.155 C29.062,15.105 29.062,15.105 29.072,15.005 C29.09,14.945 29.096,14.942 29.107,14.952 C29.084,14.947 29.027,14.922 28.889,14.868 C28.686,14.8 28.493,14.685 28.362,14.542 C28.179,14.806 27.802,15.102 27.599,15.102 C27.479,15.102 27.389,15.032 27.355,14.927 C27.341,14.885 27.337,14.855 27.335,14.799 C27.16,14.772 27.035,14.556 27.035,14.389 C27.035,14.421 26.96,14.323 26.877,14.236 L26.837,14.194 L26.717,14.072 C26.419,13.775 26.395,13.746 26.395,13.606 C26.395,13.536 26.408,13.502 26.491,13.356 C26.731,13.118 27.151,13.151 27.431,13.432 C27.681,13.682 28.066,13.817 28.289,13.762 C28.576,13.666 28.716,13.666 28.856,13.807 L28.902,13.88 C28.926,13.953 29.215,13.967 29.952,13.833 C30.6,13.673 30.722,13.673 30.982,13.848 C31.085,13.898 31.156,13.932 31.214,13.952 C30.714,9.397 28.087,5.157 24.2,2.572 C24.025,2.798 23.84,2.864 23.618,2.78 C23.61,3.054 23.412,3.266 23.091,3.157 C23.126,3.174 23.038,3.221 22.956,3.297 C22.91,3.339 22.869,3.384 22.844,3.42 C22.849,3.408 22.852,3.376 22.784,3.307 L22.838,3.44 L22.838,3.59 L22.783,3.722 C22.706,3.8 22.647,3.832 22.511,3.842 C22.521,3.928 22.489,4.017 22.408,4.097 C22.163,4.343 21.581,4.161 21.358,3.824 C21.32,3.748 21.256,3.702 21.068,3.607 C21.118,3.633 20.908,3.537 20.868,3.497 C20.782,3.411 20.788,3.283 20.87,3.202 C20.9,3.172 20.935,3.15 20.942,3.157 C21.082,3.017 21.298,3.017 21.576,3.109 C21.946,3.215 22.426,3.033 22.462,2.875 C22.447,2.907 22.422,2.891 22.395,2.879 C22.298,2.836 22.161,2.789 22.01,2.749 C21.71,2.667 21.414,2.624 21.3,2.652 C21.228,2.652 21.193,2.65 21.142,2.637 C21.068,2.619 21.002,2.581 20.942,2.522 C20.932,2.512 20.832,2.512 20.649,2.549 C20.349,2.736 20.083,2.839 19.911,2.839 C19.773,2.839 19.651,2.769 19.643,2.627 C19.615,2.631 19.583,2.634 19.546,2.634 C19.496,2.634 19.536,2.654 19.366,2.564 C19.356,2.572 19.346,2.584 19.331,2.597 C19.231,2.697 19.217,2.709 19.124,2.709 C19.049,2.709 19.024,2.701 18.968,2.649 C18.948,2.661 18.925,2.672 18.903,2.681 C18.909,2.796 18.835,2.907 18.713,2.981 C18.615,3.041 18.483,3.079 18.345,3.094 L18.337,3.23 C18.254,3.25 18.241,3.253 18.229,3.25 C18.059,3.417 18.099,3.382 18.006,3.382 C17.984,3.382 17.966,3.379 17.948,3.376 C17.905,3.418 17.878,3.441 17.846,3.466 C17.78,3.516 17.713,3.546 17.638,3.55 C17.716,3.77 17.595,4.013 17.348,4.065 L17.358,4.113 L17.358,4.263 C17.358,4.333 17.318,4.399 17.255,4.43 C17.237,4.44 17.203,4.462 17.169,4.495 C17.145,4.519 17.126,4.545 17.077,4.62 C16.989,4.71 16.927,4.77 16.875,4.812 C16.921,4.95 16.877,5.095 16.705,5.122 C16.68,5.135 16.659,5.148 16.64,5.159 C16.653,5.172 16.665,5.189 16.68,5.204 L16.72,5.258 C16.752,5.298 16.765,5.316 16.777,5.328 L16.823,5.401 C16.945,5.768 16.593,6.127 16.227,6.019 C16.215,6.117 16.182,6.189 16.102,6.269 C15.802,6.569 15.795,6.617 15.952,6.829 C16.067,6.944 16.082,7.052 16.082,7.337 C16.082,7.41 16.022,7.374 16.195,7.374 C16.245,7.374 16.329,7.312 16.495,7.149 L16.72,6.849 C16.797,6.746 16.954,6.749 17.026,6.859 L17.188,7.103 C17.264,7.253 17.406,7.457 17.552,7.608 C17.622,7.714 17.667,7.78 17.699,7.823 C17.759,7.758 17.784,7.733 17.821,7.703 C17.916,7.62 18.009,7.563 18.109,7.537 C17.965,7.264 18.011,6.859 18.227,6.735 C18.223,6.698 18.223,6.663 18.229,6.63 L18.164,6.567 C18.107,6.51 18.084,6.487 18.056,6.454 C17.931,6.309 17.883,6.161 17.883,5.91 C17.883,5.498 18.033,5.234 18.463,4.952 C18.483,4.934 18.483,4.927 18.487,4.897 C18.38,4.359 19.015,3.851 19.479,4.202 C19.526,4.249 19.543,4.267 19.565,4.297 C19.702,4.489 19.685,4.532 19.272,5.272 C19.098,5.504 19.084,5.587 19.15,5.85 C19.25,6.156 19.248,6.155 19.55,5.974 C20.037,5.682 20.514,5.564 20.78,5.742 C21.056,5.88 21.093,6.132 20.83,6.31 C20.67,6.415 20.37,6.53 19.88,6.677 C20.135,6.844 20.18,7.292 20.004,7.467 C19.829,7.643 19.7,7.577 19.544,7.417 C19.514,7.397 19.514,7.399 19.589,7.551 C19.712,7.796 19.666,7.955 19.429,8.189 C19.239,8.473 19.067,8.529 18.813,8.402 C18.776,8.394 18.745,8.414 18.489,8.606 C18.273,8.778 18.221,8.818 18.155,8.853 C18.017,8.928 17.881,8.901 17.798,8.773 L17.763,8.709 C17.563,8.933 17.338,8.959 17.168,8.845 C17.208,9.017 17.173,9.105 17.005,9.181 C16.97,9.197 16.942,9.207 16.882,9.225 C16.68,9.325 16.597,9.375 16.555,9.415 C16.493,9.478 16.445,9.525 16.4,9.555 C16.437,9.849 16.242,10.145 15.973,10.145 C15.991,10.145 15.963,10.175 15.926,10.242 C15.836,10.51 15.524,10.837 15.259,10.894 C15.254,11.024 15.209,11.104 15.127,11.147 C15.332,11.293 15.532,11.583 15.707,11.937 C15.81,12.354 15.572,12.694 15.149,12.694 C14.927,12.694 14.345,12.804 14.192,12.85 C14.206,12.908 14.228,12.977 14.277,13.122 C14.297,13.185 14.314,13.254 14.327,13.328 C14.354,13.484 14.361,13.624 14.357,13.828 C14.317,13.98 14.479,14.158 14.624,14.118 C14.699,14.118 14.746,14.121 14.804,14.131 C14.904,14.148 14.99,14.183 15.056,14.249 C15.14,14.199 15.206,14.155 15.29,14.106 C15.35,14.073 15.4,14.046 15.516,13.989 C15.746,13.874 15.862,13.714 15.862,13.557 L15.862,13.257 C15.862,13.104 16.312,12.729 16.246,12.801 C16.401,12.697 16.431,12.638 16.393,12.551 C16.289,12.137 16.523,11.869 16.95,11.869 C17.037,11.869 17.142,11.824 17.192,11.774 C17.472,11.494 17.72,11.47 18.057,11.699 C18.253,11.895 18.67,12.139 18.877,12.219 C18.75,12.146 18.637,12.061 18.542,11.964 L18.167,11.589 C17.99,11.412 17.955,11.236 18.132,11.073 C18.215,10.905 18.216,10.903 18.292,10.866 C18.424,10.799 18.455,10.821 18.582,10.948 C18.652,10.968 18.719,10.976 18.792,11 C18.855,11.02 18.912,11.052 18.957,11.098 C19.051,11.191 19.327,11.375 19.509,11.438 C19.926,11.648 20.039,11.736 20.116,11.972 C20.189,12.116 20.396,12.32 20.541,12.446 C20.554,12.402 20.543,12.373 20.536,12.344 C20.486,12.148 20.616,11.997 20.769,12.001 C20.847,11.861 21.059,11.791 21.299,11.791 C21.443,11.791 21.486,11.767 21.486,11.754 L21.504,11.677 C21.234,11.429 21.46,10.527 21.744,10.15 C21.804,10.058 21.856,9.995 21.914,9.948 C22.032,9.854 22.114,9.84 22.349,9.84 L22.433,9.86 C22.503,9.895 22.538,9.913 22.563,9.93 C22.68,9.734 23.233,9.39 23.399,9.39 C23.702,9.39 23.751,9.837 23.566,10.112 C23.566,10.112 23.574,10.112 23.916,10.227 C24.579,10.477 24.781,10.729 24.53,11.107 C24.335,11.401 23.83,11.502 23.294,11.413 C22.862,11.341 22.791,11.351 22.632,11.51 C22.58,11.562 22.532,11.59 22.396,11.658 C22.306,11.703 22.268,11.725 22.256,11.735 L22.126,11.79 C22.153,11.79 22.086,11.856 22.086,11.828 C22.086,12.006 21.928,12.165 21.75,12.165 C21.642,12.165 21.663,12.133 21.692,12.269 C21.805,12.493 21.805,12.493 21.807,12.519 L21.882,12.594 L21.929,12.708 L22.199,12.688 L22.269,12.688 C22.261,12.69 22.236,12.708 22.236,12.801 L22.291,12.668 C22.409,12.551 22.483,12.538 22.799,12.538 C23.052,12.538 23.109,12.526 23.211,12.426 C23.456,12.242 23.671,12.218 23.764,12.498 C23.806,12.625 23.811,12.753 23.811,13.326 C23.811,13.692 23.778,13.969 23.699,14.161 C23.716,14.171 23.732,14.181 23.747,14.193 C23.853,14.098 24.037,14.149 24.187,14.301 C24.537,14.563 24.837,14.955 24.86,15.241 C25.113,15.266 25.37,15.564 25.453,15.891 C25.526,16.113 25.683,16.297 26.083,16.568 C26.327,16.813 26.428,16.943 26.503,17.166 C26.617,17.509 26.699,17.692 26.767,17.759 C26.785,17.779 26.783,17.779 26.867,17.694 C26.857,17.706 27.343,17.294 27.562,17.077 C27.936,16.797 28.212,16.557 28.257,16.467 L28.312,16.402 C28.429,16.314 28.599,16.122 28.75,15.908 L28.749,15.921 Z M21.719,14.649 C20.907,14.524 20.927,14.519 20.859,14.757 C20.845,14.804 20.834,14.847 20.802,14.973 C20.676,15.35 20.352,15.35 19.64,15.081 C19.414,14.968 19.1,14.905 19.107,14.896 L18.975,14.951 C18.798,14.951 18.669,14.933 18.515,14.856 C18.263,14.73 18.158,14.554 18.272,14.329 C18.316,14.197 18.214,13.976 18.15,13.976 C18.13,13.976 17.683,14.098 17.603,14.119 C17.563,14.132 17.523,14.147 17.439,14.179 C17.036,14.334 16.954,14.356 16.823,14.229 C16.87,14.279 16.813,14.294 16.746,14.329 C16.622,14.396 16.463,14.499 16.303,14.619 C15.66,15.049 15.267,15.214 15.06,15.082 C15.088,15.034 15.112,15.052 15.112,15.14 C15.112,15.244 15.076,15.35 15.008,15.486 L14.956,15.586 C14.906,15.676 14.884,15.716 14.832,15.796 C14.682,15.948 14.672,16.072 14.792,16.256 C14.906,16.484 14.742,17.014 14.484,17.256 C14.424,17.286 14.296,17.543 14.207,17.81 C14.182,17.91 14.147,18.007 14.107,18.11 C14.085,18.16 13.987,18.377 13.987,18.365 C13.987,18.435 13.947,18.501 13.884,18.532 C13.89,18.529 13.908,18.699 14.054,19.43 C14.182,19.817 14.212,20.11 14.207,20.585 C14.16,20.77 14.162,20.775 14.307,20.857 C14.32,20.87 14.342,20.887 14.37,20.907 C14.413,20.934 14.457,20.959 14.484,20.972 C14.547,21.004 14.587,21.069 14.587,21.14 C14.587,21.095 14.76,21.23 14.954,21.36 C15.2,21.523 15.412,21.796 15.412,21.965 C15.412,22.081 15.722,22.333 16.119,22.465 C16.442,22.595 16.446,22.595 16.739,22.387 C17.102,22.267 17.244,22.227 17.399,22.227 C17.459,22.227 17.561,22.177 17.977,21.954 C18.029,21.919 18.087,21.884 18.157,21.842 C18.203,21.814 18.377,21.712 18.414,21.692 C18.486,21.648 18.531,21.618 18.59,21.572 C18.817,21.459 19.203,21.602 19.385,21.879 C19.408,21.864 19.438,21.839 19.478,21.804 C19.994,21.494 20.268,21.794 20.358,22.531 C20.503,23.323 20.568,23.501 20.728,23.608 C21.008,23.795 21.284,24.084 21.33,24.303 C21.334,24.323 21.368,24.348 21.432,24.381 C21.477,24.426 21.502,24.451 21.534,24.489 C21.644,24.619 21.712,24.746 21.712,24.889 C21.712,24.933 21.724,24.985 21.747,25.049 C21.767,25.102 21.789,25.149 21.842,25.255 C21.924,25.419 21.937,25.535 21.937,25.865 L21.917,25.948 C21.893,25.996 21.874,26.126 21.867,26.304 C21.863,26.394 21.862,26.469 21.862,26.614 C21.862,26.864 21.867,26.924 21.892,26.997 C21.915,27.059 21.959,27.13 22.046,27.247 C22.392,27.679 22.531,27.917 22.666,28.33 L22.892,28.78 L23.032,29.06 C24.296,28.41 25.382,27.645 26.322,26.725 C26.287,26.58 26.339,26.405 26.457,26.229 C26.531,26.079 26.66,25.936 26.942,25.654 C27.112,25.484 27.262,25.24 27.262,25.112 L27.262,24.962 C27.262,24.759 27.042,24.069 26.942,23.969 C26.897,23.924 26.872,23.899 26.842,23.862 C26.729,23.732 26.662,23.605 26.662,23.462 C26.662,23.375 26.617,23.269 26.567,23.219 C26.249,22.901 26.717,21.466 27.242,20.854 C27.295,20.801 27.356,20.714 27.44,20.579 L27.514,20.457 C27.591,20.329 27.624,20.274 27.652,20.237 C27.845,19.787 28.087,18.685 28.087,18.362 C28.087,18.332 28.09,18.299 28.094,18.268 C27.994,18.312 27.859,18.374 27.674,18.458 C27.207,18.658 27.14,18.681 26.992,18.665 C26.932,18.659 26.896,18.649 26.766,18.603 C26.634,18.538 26.543,18.469 26.492,18.418 C26.334,18.348 26.184,18.186 26.042,17.968 C25.799,17.725 25.662,17.601 25.566,17.553 C25.362,17.453 25.242,17.333 25.236,17.17 C25.236,17.22 25.196,17.198 25.2,17.198 L25.116,17.178 C24.896,17.068 24.8,16.933 24.722,16.62 C24.625,16.33 24.572,16.2 24.542,16.168 C24.497,16.123 24.472,16.098 24.442,16.061 C24.35,15.955 24.289,15.851 24.269,15.739 C24.182,15.639 24.012,15.435 23.949,15.364 C23.893,15.3 23.841,15.244 23.811,15.212 C23.341,14.745 23.286,14.682 23.296,14.596 C23.286,14.564 23.278,14.533 23.276,14.502 C23.198,14.507 23.112,14.5 23.016,14.479 C22.963,14.454 22.906,14.469 22.781,14.519 C22.579,14.722 22.413,14.734 21.721,14.647 L21.719,14.649 Z M22.631,10.321 C22.641,10.311 22.648,10.298 22.653,10.283 C22.651,10.283 22.65,10.281 22.648,10.28 L22.63,10.32 L22.631,10.321 Z M23.661,14.464 L23.661,14.426 L23.647,14.446 L23.663,14.416 C23.67,14.316 23.703,14.246 23.747,14.206 C23.802,14.249 23.844,14.31 23.867,14.38 C23.882,14.41 23.89,14.426 23.897,14.437 C23.88,14.413 23.851,14.387 23.774,14.387 C23.749,14.387 23.729,14.39 23.714,14.395 L23.849,14.463 L23.661,14.463 L23.661,14.425 L23.661,14.463 L23.661,14.464 Z M23.437,2.348 L23.472,2.348 C23.452,2.314 23.428,2.268 23.405,2.24 C23.377,2.267 23.355,2.297 23.34,2.328 C23.366,2.332 23.398,2.338 23.438,2.348 L23.437,2.348 Z M22.622,10.158 C22.65,10.188 22.66,10.226 22.657,10.26 L22.687,10.188 L22.687,10.155 C22.621,10.15 22.611,10.147 22.622,10.158 L22.622,10.158 Z M18.674,2.538 L18.674,2.726 C18.724,2.726 18.794,2.719 18.866,2.694 L18.904,2.68 C18.902,2.648 18.824,2.6 18.674,2.538 L18.674,2.538 Z M18.904,2.68 C18.891,2.685 18.879,2.69 18.866,2.693 C18.793,2.718 18.726,2.725 18.674,2.725 L18.674,2.538 L18.806,2.48 C18.869,2.58 18.902,2.648 18.904,2.68 L18.904,2.68 Z M23.681,14.38 L23.713,14.395 C23.69,14.402 23.673,14.412 23.663,14.425 L23.663,14.415 L23.681,14.379 L23.681,14.38 Z M16.5,5.086 L16.51,5.069 L16.48,5.054 L16.472,5.054 C16.482,5.064 16.492,5.074 16.5,5.086 Z M16.84,8.35 L16.998,8.382 C16.994,8.372 16.99,8.36 16.988,8.35 L16.892,8.255 C16.875,8.272 16.862,8.29 16.849,8.309 L16.839,8.349 L16.84,8.35 Z M20.924,5.65 C20.907,5.674 20.884,5.693 20.859,5.705 C20.895,5.69 20.912,5.671 20.922,5.651 L20.86,5.651 C20.884,5.651 20.915,5.633 20.936,5.609 C20.938,5.589 20.936,5.573 20.932,5.559 L20.95,5.589 L20.952,5.585 C20.959,5.571 20.962,5.56 20.962,5.547 C20.962,5.564 20.958,5.58 20.954,5.595 L20.982,5.631 L20.986,5.635 L20.924,5.652 L20.924,5.65 Z M20.924,5.65 C20.907,5.674 20.884,5.693 20.859,5.705 C20.895,5.69 20.912,5.671 20.922,5.651 L20.86,5.651 C20.884,5.651 20.915,5.633 20.936,5.609 C20.938,5.589 20.936,5.573 20.932,5.559 L20.95,5.589 L20.952,5.585 C20.959,5.571 20.962,5.56 20.962,5.547 C20.962,5.564 20.958,5.58 20.954,5.595 L20.982,5.631 L20.986,5.635 C21.008,5.618 21.034,5.605 21.062,5.595 C21.112,5.579 21.146,5.575 21.224,5.575 C21.16,5.575 21.15,5.579 21.15,5.735 C21.15,5.771 21.114,5.71 21.092,5.671 C21.086,5.665 21.062,5.661 21.012,5.656 C21.026,5.666 21.042,5.676 21.052,5.68 C21.012,5.665 20.915,5.678 20.892,5.787 C20.902,5.735 20.926,5.687 20.964,5.652 L20.924,5.652 L20.924,5.65 Z M20.85,5.275 C21.134,5.275 21.243,5.291 21.38,5.435 C21.595,5.755 21.6,5.945 21.242,5.95 C21.19,6.072 21.046,6.08 20.922,6.03 C20.85,6.002 20.772,5.95 20.717,5.895 C20.662,5.84 20.61,5.763 20.582,5.692 C20.536,5.577 20.539,5.446 20.635,5.385 C20.681,5.318 20.757,5.275 20.85,5.275 L20.85,5.275 Z M14.137,9.363 C14.137,9.376 14.139,9.385 14.144,9.391 L14.137,9.364 L14.137,9.363 Z M13.632,7.929 C13.665,7.863 13.708,7.805 13.759,7.754 C13.824,7.688 13.889,7.644 13.939,7.619 L14.024,7.599 C14.24,7.599 14.278,7.769 14.217,7.922 C14.242,7.858 14.151,8.072 14.137,8.087 L14.117,8.171 C14.387,8.084 14.457,8.281 14.341,8.621 C14.329,8.645 14.321,8.669 14.314,8.691 C14.574,8.809 14.924,9.093 15.004,9.258 C15.108,9.412 15.148,9.458 15.192,9.47 C15.319,9.42 15.432,9.428 15.512,9.547 C15.558,9.617 15.562,9.653 15.562,9.81 C15.562,10.2 15.29,10.423 14.774,10.522 C14.756,10.522 14.664,10.562 14.468,10.659 C14.11,10.802 14.001,10.826 13.928,10.609 C13.888,10.484 13.926,10.412 14.093,10.279 C13.927,10.229 13.906,10.079 14.04,9.827 C14.028,9.84 14.023,9.901 14.057,9.947 C14.034,9.597 14.035,9.597 14.069,9.633 C14.089,9.623 14.101,9.615 14.163,9.567 C14.193,9.552 14.196,9.527 14.153,9.444 L14.143,9.396 C14.033,9.388 13.899,9.34 13.796,9.271 C13.656,9.178 13.569,9.049 13.6,8.905 C13.343,8.732 13.386,8.242 13.628,7.925 L13.632,7.929 Z M14.682,9.446 C14.659,9.399 14.58,9.321 14.489,9.244 C14.497,9.266 14.503,9.288 14.507,9.311 C14.603,9.528 14.577,9.743 14.427,9.844 C14.427,9.864 14.425,9.887 14.42,9.909 C14.603,9.923 14.707,10.029 14.708,10.154 C14.718,10.154 14.728,10.152 14.738,10.154 C15.04,10.094 15.168,10.001 15.185,9.848 C14.987,9.836 14.873,9.733 14.682,9.445 L14.682,9.446 Z M13.786,8.581 L13.806,8.597 L13.809,8.594 C13.805,8.594 13.803,8.59 13.802,8.584 C13.796,8.584 13.792,8.582 13.785,8.581 L13.786,8.581 Z M13.93,8.675 L13.938,8.635 C13.921,8.635 13.905,8.635 13.888,8.631 C13.904,8.644 13.918,8.658 13.93,8.675 L13.93,8.675 Z M14.256,9.962 L14.273,9.952 L14.256,9.962 Z M14.342,9.908 C14.359,9.894 14.372,9.88 14.384,9.868 L14.339,9.908 L14.341,9.908 L14.342,9.908 Z M13.967,8.995 C13.979,8.971 13.981,8.958 13.987,8.955 L13.979,8.945 L13.966,8.995 L13.967,8.995 Z M13.05,9.848 C12.993,9.848 12.958,9.868 12.936,9.895 L13.05,9.848 Z M12.835,9.728 C12.871,9.654 12.875,9.651 12.983,9.608 C12.98,9.593 12.979,9.578 12.979,9.564 C12.979,9.517 12.993,9.472 13.006,9.442 C13.011,9.432 13.011,9.429 13.011,9.436 C13.011,9.4 13.018,9.359 13.041,9.314 C13.083,9.23 13.167,9.174 13.274,9.174 C13.324,9.104 13.422,9.074 13.508,9.118 C13.738,9.233 13.835,9.381 13.826,9.601 C13.922,9.891 13.863,10.011 13.556,10.318 L13.482,10.364 C13.427,10.382 13.372,10.407 13.322,10.438 C13.252,10.478 13.204,10.52 13.18,10.543 L13.048,10.598 C12.778,10.598 12.748,10.178 12.868,9.968 C12.784,9.88 12.776,9.841 12.833,9.728 L12.835,9.728 Z M13.437,9.528 C13.427,9.533 13.417,9.535 13.409,9.538 C13.427,9.6 13.415,9.674 13.373,9.738 C13.353,9.768 13.333,9.792 13.258,9.858 C13.286,9.916 13.298,9.978 13.294,10.034 L13.32,10.024 C13.507,9.836 13.506,9.826 13.46,9.661 C13.46,9.595 13.457,9.556 13.44,9.528 L13.435,9.528 L13.437,9.528 Z M13.341,9.453 L13.376,9.471 C13.366,9.461 13.358,9.451 13.346,9.443 L13.342,9.453 L13.341,9.453 Z M13.381,9.473 L13.386,9.477 L13.388,9.447 C13.388,9.457 13.385,9.465 13.381,9.473 C13.383,9.473 13.384,9.475 13.386,9.476 L13.381,9.472 L13.381,9.473 Z M13.376,9.471 C13.376,9.473 13.379,9.475 13.38,9.477 L13.38,9.473 L13.375,9.47 L13.376,9.471 Z M2.513,12.361 C2.513,12.304 2.491,12.267 2.466,12.246 L2.513,12.361 Z M1.351,10.521 C1.444,10.615 1.463,10.644 1.463,10.739 C1.463,10.789 1.453,10.829 1.436,10.862 C1.498,10.932 1.55,10.977 1.633,11.029 C1.746,11.142 1.746,11.142 1.818,11.229 C1.832,11.255 1.856,11.299 1.885,11.341 C1.903,11.369 1.92,11.391 1.933,11.404 C2.013,11.484 2.043,11.499 2.026,11.499 C2.118,11.499 2.241,11.519 2.371,11.576 C2.441,11.58 2.507,11.594 2.593,11.619 C2.696,11.649 2.699,11.649 2.701,11.649 C2.946,11.649 3.041,11.819 2.999,11.949 C3.201,11.931 3.343,12.071 3.404,12.377 C3.514,12.71 3.457,12.882 3.076,12.999 C3.026,12.999 2.946,13.057 2.833,13.169 C2.753,13.249 2.661,13.284 2.333,13.385 C2.243,13.412 2.205,13.425 2.16,13.44 C2.094,13.462 2.04,13.48 1.912,13.517 C1.85,13.537 1.85,13.537 1.789,13.554 C1.649,13.597 1.562,13.628 1.509,13.654 C1.474,13.672 1.429,13.704 1.381,13.75 C1.633,13.63 1.865,13.626 1.961,13.84 C2.108,14.027 1.966,14.25 1.811,14.265 C1.759,14.231 1.798,14.228 1.903,14.307 C2.043,14.4 2.043,14.403 2.041,14.405 C2.188,14.259 2.148,14.295 2.239,14.295 C2.374,14.295 2.422,14.378 2.434,14.472 C2.442,14.475 2.452,14.457 2.468,14.434 C2.678,14.114 2.933,14.064 3.09,14.379 L3.11,14.462 C3.11,14.604 3.057,14.686 2.945,14.714 C2.905,14.854 2.785,15.002 2.632,15.079 C2.47,15.159 2.307,15.287 2.265,15.371 C2.131,15.639 1.76,15.761 1.76,15.361 C1.76,15.315 1.772,15.263 1.792,15.208 C1.63,15.398 1.415,15.548 1.272,15.548 C1.328,15.548 1.272,15.632 1.226,15.72 C1.188,15.833 1.189,15.837 1.256,15.903 C1.534,16.183 1.358,16.489 0.898,16.598 C0.831,16.598 0.582,17.121 0.635,17.311 L0.635,17.407 C0.625,17.557 0.609,17.61 0.438,17.61 C0.328,17.61 0.311,17.59 0.253,17.486 C0.243,17.466 0.231,17.446 0.24,17.441 C0.205,17.406 0.178,17.369 0.156,17.334 C0.09,17.309 0.041,17.247 0.036,17.172 C-0.12,14.912 0.208,12.646 1.019,10.577 C1.025,10.56 1.034,10.543 1.044,10.527 C1.061,10.501 1.084,10.482 1.109,10.467 C1.133,10.457 1.161,10.449 1.189,10.447 C1.222,10.447 1.254,10.453 1.283,10.467 C1.3,10.477 1.316,10.487 1.331,10.502 L1.349,10.52 C1.372,10.55 1.386,10.588 1.386,10.635 C1.386,10.665 1.386,10.665 1.011,10.668 L1.011,10.636 C1.011,10.616 1.014,10.596 1.021,10.579 C1.021,10.577 1.131,10.559 1.349,10.522 L1.351,10.521 Z M1.068,10.768 C1.072,10.772 1.086,10.79 1.088,10.748 L1.068,10.768 Z M0.855,16.228 C1.027,16.186 1.021,16.198 0.993,16.168 C0.833,16.008 0.786,15.863 0.883,15.578 C1.053,15.238 1.096,15.173 1.276,15.173 C1.289,15.173 1.468,15.033 1.593,14.853 C1.66,14.786 1.73,14.728 1.8,14.68 C1.764,14.66 1.727,14.637 1.687,14.61 C1.482,14.456 1.371,14.31 1.381,14.183 C1.281,14.253 1.191,14.338 1.131,14.415 C0.901,14.76 0.753,14.879 0.591,14.703 C0.511,14.663 0.467,14.611 0.453,14.547 C0.447,14.52 0.446,14.492 0.45,14.463 C0.458,14.486 0.455,14.516 0.452,14.546 C0.38,15.256 0.359,15.974 0.387,16.694 C0.507,16.439 0.69,16.224 0.854,16.227 L0.855,16.228 Z M1.125,10.598 C1.128,10.598 1.115,10.604 1.102,10.636 L1.389,10.636 L1.389,10.652 C1.389,10.662 1.389,10.664 1.279,10.666 L1.376,10.704 C1.316,10.856 1.26,11.009 1.206,11.164 L1.146,11.097 C1.118,11.065 1.009,10.932 0.994,10.917 C0.876,10.799 0.96,10.597 1.127,10.597 L1.125,10.598 Z M2.805,12.442 C2.509,12.639 2.181,12.695 2.142,12.418 C2.084,12.278 2.172,12.096 2.327,11.948 L2.243,11.928 C2.163,11.888 2.076,11.873 2.028,11.873 C1.935,11.873 1.815,11.813 1.67,11.668 C1.637,11.635 1.606,11.595 1.574,11.548 C1.537,11.49 1.506,11.434 1.521,11.443 L1.391,11.313 C1.328,11.277 1.269,11.227 1.207,11.163 C0.843,12.193 0.599,13.273 0.475,14.369 C0.517,14.249 0.609,14.104 0.735,13.929 C0.935,13.652 1.171,13.406 1.345,13.319 C1.425,13.279 1.525,13.244 1.685,13.195 C1.745,13.175 1.745,13.175 1.809,13.157 C1.932,13.12 1.985,13.104 2.045,13.084 C2.095,13.068 2.135,13.054 2.228,13.026 C2.448,12.958 2.558,12.916 2.572,12.904 C2.76,12.716 2.889,12.624 3.02,12.634 C3.12,12.601 3.103,12.651 3.046,12.474 C3.006,12.267 3.036,12.274 2.81,12.444 L2.805,12.442 Z M0.412,17.15 L0.405,17.044 C0.371,17.014 0.332,16.991 0.285,16.981 C0.269,17.044 0.258,17.105 0.253,17.161 L0.266,17.161 C0.266,17.121 0.273,17.133 0.293,17.159 L0.413,17.151 L0.412,17.15 Z M1.276,10.668 L1.168,10.668 L1.2,10.638 L1.276,10.668 L1.168,10.668 L1.276,10.668 Z M1.086,10.741 C1.086,10.713 1.089,10.691 1.093,10.671 L1.168,10.671 L1.088,10.751 L1.088,10.741 L1.086,10.741 Z M7.516,25.846 C7.552,25.881 7.579,25.906 7.601,25.92 L7.629,25.89 L7.519,25.845 L7.516,25.846 Z M8.211,25.983 C8.411,25.67 8.673,25.673 9.133,25.956 C9.293,26.116 9.363,26.126 9.789,26.056 C10.169,25.979 10.484,26.032 10.585,26.146 C10.631,26.169 10.672,26.182 10.771,26.206 C10.897,26.238 10.956,26.256 11.021,26.29 C11.539,26.496 11.668,27.092 11.343,27.822 C11.367,27.774 11.133,28.288 11.033,28.438 L11.043,28.518 C11.053,28.592 11.123,28.978 11.131,29.036 C11.281,29.559 11.296,29.883 11.213,30.363 L11.213,30.438 C11.213,30.561 11.096,30.651 10.977,30.618 C7.775,29.76 4.997,27.81 3.057,24.972 C3.031,24.918 3.009,24.882 2.957,24.804 C2.897,24.714 2.869,24.668 2.833,24.597 L2.813,24.513 L2.813,24.438 C2.703,24.256 2.735,24.025 3.001,24.025 C2.968,24.025 2.963,24.032 2.963,23.988 L2.963,23.913 L3.338,23.913 C3.338,23.863 3.376,23.888 3.448,23.918 L3.594,23.978 C3.616,23.971 3.64,23.968 3.676,23.968 C3.769,23.968 3.784,23.981 3.883,24.08 C3.863,24.06 3.998,24.033 4.173,23.982 C4.467,23.785 4.796,23.728 4.833,24.005 C4.846,24.022 4.863,24.043 4.883,24.065 C4.907,24.087 4.933,24.107 4.96,24.12 C5.145,24.213 5.262,24.274 5.4,24.352 C5.495,24.406 5.58,24.457 5.634,24.495 C5.964,24.661 6.032,24.679 6.174,24.632 C6.767,24.462 7.537,24.864 7.537,25.338 C7.537,25.32 7.567,25.348 7.707,25.43 C7.775,25.498 7.799,25.523 7.824,25.562 C7.856,25.61 7.871,25.664 7.867,25.715 C8.062,25.643 8.199,25.779 8.211,25.982 L8.211,25.983 Z M4.481,24.143 L4.463,24.063 C4.463,24.097 4.471,24.123 4.483,24.143 L4.481,24.143 Z M3.133,24.231 L3.141,24.251 C3.139,24.241 3.137,24.234 3.133,24.231 Z M2.963,23.914 C2.963,23.664 3.338,23.664 3.338,23.914 L3.338,23.989 C3.338,24.089 3.313,24.179 3.268,24.249 C3.06,24.159 2.963,24.084 2.963,23.914 Z M4.335,24.317 C3.93,24.452 3.795,24.485 3.667,24.39 C3.589,24.42 3.497,24.39 3.449,24.324 C3.423,24.312 3.289,24.258 3.304,24.264 L3.268,24.249 C3.244,24.285 3.214,24.317 3.18,24.342 L3.187,24.362 L3.187,24.467 C3.207,24.502 3.229,24.537 3.267,24.595 C3.329,24.685 3.357,24.732 3.379,24.781 C5.212,27.461 7.833,29.331 10.859,30.197 C10.911,29.817 10.889,29.557 10.764,29.117 C10.752,29.045 10.681,28.652 10.669,28.57 C10.634,28.32 10.632,28.198 10.766,28.162 C10.829,28.039 10.984,27.698 11.002,27.662 C11.246,27.112 11.168,26.752 10.865,26.63 C10.818,26.607 10.778,26.595 10.678,26.57 C10.552,26.538 10.492,26.52 10.365,26.445 C10.32,26.4 10.128,26.368 9.855,26.423 C9.315,26.513 9.129,26.483 8.901,26.249 C8.599,26.066 8.579,26.069 8.491,26.246 C8.378,26.471 8.171,26.649 7.948,26.649 C7.758,26.649 7.628,26.599 7.566,26.527 C7.468,26.623 7.346,26.724 7.273,26.724 L7.14,26.669 C7.013,26.543 7.072,26.345 7.233,25.989 C7.285,25.876 7.341,25.771 7.39,25.696 C7.247,25.588 7.16,25.479 7.16,25.336 C7.16,25.148 6.653,24.884 6.282,24.99 C6.022,25.078 5.882,25.04 5.444,24.82 C5.378,24.775 5.3,24.728 5.214,24.68 C5.084,24.604 4.969,24.546 4.789,24.455 C4.725,24.423 4.667,24.38 4.616,24.329 C4.576,24.289 4.546,24.249 4.522,24.215 C4.48,24.231 4.42,24.262 4.332,24.315 L4.335,24.317 Z" id="Shape"></path>
                                </g>
                            </g>
                        </g>
                    </g>
                </g>
            </g>
        </g>
    </g>
</svg>